<?xml version="1.0" encoding="utf-8"?>
<!-- Generator: Adobe Illustrator 20.1.0, SVG Export Plug-In . SVG Version: 6.00 Build 0)  -->
<svg version="1.1" id="Layer_1" xmlns="http://www.w3.org/2000/svg" xmlns:xlink="http://www.w3.org/1999/xlink" x="0px" y="0px"
	 viewBox="0 0 1432 382" style="enable-background:new 0 0 1432 382;" xml:space="preserve">
<style type="text/css">
	.st0{fill:none;}
	.st1{fill:#0E213C;}
</style>
<rect id="Desktop-1440" x="25.2" y="-205.2" class="st0" width="8937.9" height="38286.3"/>
<g id="header">
	<g id="logo">
		<g transform="matrix(0.75,0,0,1,-616,-36.3312)">
			<g transform="matrix(1.33333,0,0,1,-307.63,2.13163e-14)">
				<path class="st0" d="M851.1,263.8h12.5v-31.5h29.5V222h-29.5v-21h35.9v-10.3h-48.4V263.8L851.1,263.8z"/>
				<rect x="918.5" y="190.8" class="st0" width="12.5" height="73"/>
				<path class="st0" d="M956.9,263.8h49.3v-10.3h-36.8v-21.2h29.5V222h-29.5v-21h35.9v-10.3h-48.4V263.8L956.9,263.8z"/>
				<path class="st0" d="M1027.1,263.8h47.7v-10.3h-35.2v-62.7h-12.5V263.8L1027.1,263.8z"/>
				<path class="st0" d="M1091.9,263.8h27.4c23.8,0,36.3-14.6,36.3-37.5c0-23.2-13.2-35.4-36.8-35.4h-27L1091.9,263.8L1091.9,263.8z
					 M1104.4,253.5V201h13c20,0,24.7,13.3,24.7,25.6c0,12.4-4.8,26.8-24.7,26.8L1104.4,253.5L1104.4,253.5z"/>
				<path class="st0" d="M1212.2,263.8h12.5v-29.2h12.2c8.8,0,9.5,7,10.7,13.1c2.2,11,6.3,17.1,15.5,17.1c2.1,0,3.4-0.3,3.4-0.3
					l2.2-10.4c-6.8,0-8-3.4-9.4-9.5c-1.8-8.2-2.5-11.8-7.7-14.3c8.3-3,13.2-9.2,13.2-18.9c0-11.2-6.7-20.5-25.6-20.5h-27.1v72.9
					H1212.2L1212.2,263.8z M1235.3,200.6c11.6,0,16.5,3.1,16.5,11.6c0,7-3.4,12.5-17.1,12.5h-10v-24.2L1235.3,200.6L1235.3,200.6z"
					/>
				<path class="st0" d="M1288.7,263.8h49.3v-10.3h-36.8v-21.2h29.5V222h-29.5v-21h35.9v-10.3h-48.4V263.8L1288.7,263.8z"/>
				<path class="st0" d="M1358.8,263.8h12.5v-25h10.4c21.8,0,30.5-10.6,30.5-24.9c0-13.3-7.7-23.1-29.5-23.1h-24L1358.8,263.8
					L1358.8,263.8z M1382.6,200.6c14.9,0,16.5,7.4,16.5,13.4c0,6.3-2.5,15.1-17.6,15.1h-10.3v-28.5H1382.6L1382.6,200.6z"/>
				<path class="st0" d="M1463.4,265.9c24.3,0,36-16.2,36-39.6c0-24.1-12.2-37.5-36-37.5c-24.1,0-36.2,15.8-36.2,37.5
					C1427.2,250.7,1438.4,265.9,1463.4,265.9z M1463.4,255.9c-16,0-22.5-12.2-22.5-28.5c0-15.3,6.6-28.8,22.5-28.8
					c16.2,0,22.5,12.2,22.5,28.8C1485.9,242,1479.2,255.9,1463.4,255.9z"/>
				<path class="st0" d="M1520.7,263.8h12.5v-29.2h12.2c8.8,0,9.5,7,10.7,13.1c2.2,11,6.3,17.1,15.5,17.1c2.1,0,3.4-0.3,3.4-0.3
					l2.2-10.4c-6.8,0-8-3.4-9.4-9.5c-1.8-8.2-2.5-11.8-7.7-14.3c8.3-3,13.2-9.2,13.2-18.9c0-11.2-6.7-20.5-25.6-20.5h-27.1
					L1520.7,263.8L1520.7,263.8z M1543.8,200.6c11.6,0,16.5,3.1,16.5,11.6c0,7-3.4,12.5-17.1,12.5h-10v-24.2L1543.8,200.6
					L1543.8,200.6z"/>
				<path class="st0" d="M1587.3,201.1h27.3v62.7h12.5v-62.7h27.3v-10.3h-67L1587.3,201.1L1587.3,201.1z"/>
				<path class="st0" d="M1671.6,263.8h49.3v-10.3h-36.8v-21.2h29.5V222h-29.5v-21h35.9v-10.3h-48.4V263.8L1671.6,263.8z"/>
				<path class="st0" d="M1741.8,263.8h12.5v-29.2h12.2c8.8,0,9.5,7,10.7,13.1c2.2,11,6.3,17.1,15.5,17.1c2.1,0,3.4-0.3,3.4-0.3
					l2.2-10.4c-6.8,0-8-3.4-9.4-9.5c-1.8-8.2-2.5-11.8-7.7-14.3c8.3-3,13.2-9.2,13.2-18.9c0-11.2-6.7-20.5-25.6-20.5h-27.1
					L1741.8,263.8L1741.8,263.8z M1764.9,200.6c11.6,0,16.5,3.1,16.5,11.6c0,7-3.4,12.5-17.1,12.5h-10v-24.2L1764.9,200.6
					L1764.9,200.6z"/>
			</g>
			<g transform="matrix(1.33333,0,0,1,-307.63,2.13163e-14)">
				<path class="st1" d="M851.1,263.8h12.5v-31.5h29.5v-10.3h-29.5v-21h35.9v-10.3h-48.4V263.8L851.1,263.8z"/>
				<rect x="918.5" y="190.7" class="st1" width="12.5" height="73"/>
				<path class="st1" d="M956.9,263.8h49.3v-10.3h-36.8v-21.2h29.5v-10.3h-29.5v-21h35.9v-10.3h-48.4V263.8L956.9,263.8z"/>
				<path class="st1" d="M1027.1,263.8h47.7v-10.3h-35.2v-62.7h-12.5V263.8L1027.1,263.8z"/>
				<path class="st1" d="M1091.9,263.8h27.4c23.8,0,36.3-14.6,36.3-37.5c0-23.2-13.2-35.4-36.8-35.4h-27L1091.9,263.8L1091.9,263.8z
					 M1104.4,253.4v-52.5h13c20,0,24.7,13.3,24.7,25.6c0,12.4-4.8,26.8-24.7,26.8L1104.4,253.4L1104.4,253.4z"/>
				<path class="st1" d="M1212.2,263.8h12.5v-29.2h12.2c8.8,0,9.5,7,10.7,13.1c2.2,11,6.3,17.1,15.5,17.1c2.1,0,3.4-0.3,3.4-0.3
					l2.2-10.4c-6.8,0-8-3.4-9.4-9.5c-1.8-8.2-2.5-11.8-7.7-14.3c8.3-3,13.2-9.2,13.2-18.9c0-11.2-6.7-20.5-25.6-20.5h-27.1v72.9
					L1212.2,263.8L1212.2,263.8z M1235.3,200.5c11.6,0,16.5,3.1,16.5,11.6c0,7-3.4,12.5-17.1,12.5h-10v-24.2L1235.3,200.5
					L1235.3,200.5z"/>
				<path class="st1" d="M1288.7,263.8h49.3v-10.3h-36.8v-21.2h29.5v-10.3h-29.5v-21h35.9v-10.3h-48.4V263.8L1288.7,263.8z"/>
				<path class="st1" d="M1358.8,263.8h12.5v-25h10.4c21.8,0,30.5-10.6,30.5-24.9c0-13.3-7.7-23.1-29.5-23.1h-24L1358.8,263.8
					L1358.8,263.8z M1382.6,200.5c14.9,0,16.5,7.4,16.5,13.4c0,6.3-2.5,15.1-17.6,15.1h-10.3v-28.5H1382.6L1382.6,200.5z"/>
				<path class="st1" d="M1463.4,265.8c24.3,0,36-16.2,36-39.6c0-24.1-12.2-37.5-36-37.5c-24.1,0-36.2,15.8-36.2,37.5
					C1427.2,250.6,1438.4,265.8,1463.4,265.8z M1463.4,255.8c-16,0-22.5-12.2-22.5-28.5c0-15.3,6.6-28.8,22.5-28.8
					c16.2,0,22.5,12.2,22.5,28.8C1485.9,241.9,1479.2,255.8,1463.4,255.8z"/>
				<path class="st1" d="M1520.7,263.8h12.5v-29.2h12.2c8.8,0,9.5,7,10.7,13.1c2.2,11,6.3,17.1,15.5,17.1c2.1,0,3.4-0.3,3.4-0.3
					l2.2-10.4c-6.8,0-8-3.4-9.4-9.5c-1.8-8.2-2.5-11.8-7.7-14.3c8.3-3,13.2-9.2,13.2-18.9c0-11.2-6.7-20.5-25.6-20.5h-27.1
					L1520.7,263.8L1520.7,263.8z M1543.8,200.5c11.6,0,16.5,3.1,16.5,11.6c0,7-3.4,12.5-17.1,12.5h-10v-24.2L1543.8,200.5
					L1543.8,200.5z"/>
				<path class="st1" d="M1587.3,201h27.3v62.7h12.5V201h27.3v-10.3h-67L1587.3,201L1587.3,201z"/>
				<path class="st1" d="M1671.6,263.8h49.3v-10.3h-36.8v-21.2h29.5v-10.3h-29.5v-21h35.9v-10.3h-48.4V263.8L1671.6,263.8z"/>
				<path class="st1" d="M1741.8,263.8h12.5v-29.2h12.2c8.8,0,9.5,7,10.7,13.1c2.2,11,6.3,17.1,15.5,17.1c2.1,0,3.4-0.3,3.4-0.3
					l2.2-10.4c-6.8,0-8-3.4-9.4-9.5c-1.8-8.2-2.5-11.8-7.7-14.3c8.3-3,13.2-9.2,13.2-18.9c0-11.2-6.7-20.5-25.6-20.5h-27.1
					L1741.8,263.8L1741.8,263.8z M1764.9,200.5c11.6,0,16.5,3.1,16.5,11.6c0,7-3.4,12.5-17.1,12.5h-10v-24.2L1764.9,200.5
					L1764.9,200.5z"/>
			</g>
		</g>
	</g>
</g>
</svg>
