<?xml version="1.0" encoding="utf-8"?>
<!-- Generator: Adobe Illustrator 20.1.0, SVG Export Plug-In . SVG Version: 6.00 Build 0)  -->
<svg height="3rem" version="1.1" id="Layer_1" xmlns="http://www.w3.org/2000/svg" xmlns:xlink="http://www.w3.org/1999/xlink" x="0px" y="0px"
	 viewBox="0 0 1432 348" style="enable-background:new 0 0 1432 348;" xml:space="preserve">
<style type="text/css">
	.st0{fill:none;}
	.st1{fill:#0E213C;stroke:#000000;stroke-width:0.46;stroke-linejoin:round;stroke-miterlimit:1.4142;}
	.st2{fill:#AEF059;}
</style>
<rect id="Desktop-1440" x="-217.2" y="-222.2" class="st0" width="8937.9" height="38286.3"/>
<g id="header">
	<g id="logo">
		<g transform="matrix(0.75,0,0,1,-616,-36.3312)">
			<g transform="matrix(1.33333,0,0,1,-307.63,2.13163e-14)">
				<path class="st0" d="M1329.7,238.5h12.5V207h29.5v-10.3h-29.5v-21h35.9v-10.3h-48.4V238.5L1329.7,238.5z"/>
				<rect x="1397.1" y="165.5" class="st0" width="12.5" height="73"/>
				<path class="st0" d="M1435.5,238.5h49.3v-10.3H1448V207h29.5v-10.3H1448v-21h35.9v-10.3h-48.4V238.5L1435.5,238.5z"/>
				<path class="st0" d="M1505.7,238.5h47.7v-10.3h-35.2v-62.7h-12.5V238.5z"/>
				<path class="st0" d="M1570.5,238.5h27.4c23.8,0,36.3-14.6,36.3-37.5c0-23.2-13.2-35.4-36.8-35.4h-27V238.5z M1583,228.2v-52.5
					h13c20,0,24.7,13.3,24.7,25.6c0,12.4-4.8,26.8-24.7,26.8H1583z"/>
				<path class="st0" d="M1690.8,238.5h12.5v-29.2h12.2c8.8,0,9.5,7,10.7,13.1c2.2,11,6.3,17.1,15.5,17.1c2.1,0,3.4-0.3,3.4-0.3
					l2.2-10.4c-6.8,0-8-3.4-9.4-9.5c-1.8-8.2-2.5-11.8-7.7-14.3c8.3-3,13.2-9.2,13.2-18.9c0-11.2-6.7-20.5-25.6-20.5h-27.1V238.5
					L1690.8,238.5z M1713.9,175.3c11.6,0,16.5,3.1,16.5,11.6c0,7-3.4,12.5-17.1,12.5h-10v-24.2L1713.9,175.3L1713.9,175.3z"/>
				<path class="st0" d="M1767.3,238.5h49.3v-10.3h-36.8V207h29.5v-10.3h-29.5v-21h35.9v-10.3h-48.4V238.5L1767.3,238.5z"/>
				<path class="st0" d="M1837.4,238.5h12.5v-25h10.4c21.8,0,30.5-10.6,30.5-24.9c0-13.3-7.7-23.1-29.5-23.1h-24L1837.4,238.5
					L1837.4,238.5z M1861.2,175.3c14.9,0,16.5,7.4,16.5,13.4c0,6.3-2.5,15.1-17.6,15.1h-10.3v-28.5L1861.2,175.3L1861.2,175.3z"/>
				<path class="st0" d="M1942,240.6c24.3,0,36-16.2,36-39.6c0-24.1-12.2-37.5-36-37.5c-24.1,0-36.2,15.8-36.2,37.5
					C1905.8,225.4,1917,240.6,1942,240.6z M1942,230.6c-16,0-22.5-12.2-22.5-28.5c0-15.3,6.6-28.8,22.5-28.8
					c16.2,0,22.5,12.2,22.5,28.8C1964.5,216.7,1957.8,230.6,1942,230.6z"/>
				<path class="st0" d="M1999.3,238.5h12.5v-29.2h12.2c8.8,0,9.5,7,10.7,13.1c2.2,11,6.3,17.1,15.5,17.1c2.1,0,3.4-0.3,3.4-0.3
					l2.2-10.4c-6.8,0-8-3.4-9.4-9.5c-1.8-8.2-2.5-11.8-7.7-14.3c8.3-3,13.2-9.2,13.2-18.9c0-11.2-6.7-20.5-25.6-20.5h-27.1
					L1999.3,238.5L1999.3,238.5z M2022.4,175.3c11.6,0,16.5,3.1,16.5,11.6c0,7-3.4,12.5-17.1,12.5h-10v-24.2L2022.4,175.3
					L2022.4,175.3z"/>
				<path class="st0" d="M2065.9,175.8h27.3v62.7h12.5v-62.7h27.3v-10.3h-67L2065.9,175.8L2065.9,175.8z"/>
				<path class="st0" d="M2150.2,238.5h49.3v-10.3h-36.8V207h29.5v-10.3h-29.5v-21h35.9v-10.3h-48.4L2150.2,238.5L2150.2,238.5z"/>
				<path class="st0" d="M2220.4,238.5h12.5v-29.2h12.2c8.8,0,9.5,7,10.7,13.1c2.2,11,6.3,17.1,15.5,17.1c2.1,0,3.4-0.3,3.4-0.3
					l2.2-10.4c-6.8,0-8-3.4-9.4-9.5c-1.8-8.2-2.5-11.8-7.7-14.3c8.3-3,13.2-9.2,13.2-18.9c0-11.2-6.7-20.5-25.6-20.5h-27.1
					L2220.4,238.5L2220.4,238.5z M2243.5,175.3c11.6,0,16.5,3.1,16.5,11.6c0,7-3.4,12.5-17.1,12.5h-10v-24.2L2243.5,175.3
					L2243.5,175.3z"/>
			</g>
			<g transform="matrix(1.33333,0,0,1,-307.63,2.13163e-14)">
				<path class="st1" d="M1329.7,238.5h12.5V207h29.5v-10.3h-29.5v-21h35.9v-10.3h-48.4V238.5L1329.7,238.5z"/>
				<rect x="1397.1" y="165.5" class="st1" width="12.5" height="73"/>
				<path class="st1" d="M1435.5,238.5h49.3v-10.3H1448V207h29.5v-10.3H1448v-21h35.9v-10.3h-48.4V238.5L1435.5,238.5z"/>
				<path class="st1" d="M1505.7,238.5h47.7v-10.3h-35.2v-62.7h-12.5V238.5z"/>
				<path class="st1" d="M1570.5,238.5h27.4c23.8,0,36.3-14.6,36.3-37.5c0-23.2-13.2-35.4-36.8-35.4h-27V238.5z M1583,228.2v-52.5
					h13c20,0,24.7,13.3,24.7,25.6c0,12.4-4.8,26.8-24.7,26.8H1583z"/>
				<path class="st1" d="M1690.8,238.5h12.5v-29.2h12.2c8.8,0,9.5,7,10.7,13.1c2.2,11,6.3,17.1,15.5,17.1c2.1,0,3.4-0.3,3.4-0.3
					l2.2-10.4c-6.8,0-8-3.4-9.4-9.5c-1.8-8.2-2.5-11.8-7.7-14.3c8.3-3,13.2-9.2,13.2-18.9c0-11.2-6.7-20.5-25.6-20.5h-27.1V238.5
					L1690.8,238.5z M1713.9,175.3c11.6,0,16.5,3.1,16.5,11.6c0,7-3.4,12.5-17.1,12.5h-10v-24.2L1713.9,175.3L1713.9,175.3z"/>
				<path class="st1" d="M1767.3,238.5h49.3v-10.3h-36.8V207h29.5v-10.3h-29.5v-21h35.9v-10.3h-48.4V238.5L1767.3,238.5z"/>
				<path class="st1" d="M1837.4,238.5h12.5v-25h10.4c21.8,0,30.5-10.6,30.5-24.9c0-13.3-7.7-23.1-29.5-23.1h-24L1837.4,238.5
					L1837.4,238.5z M1861.2,175.3c14.9,0,16.5,7.4,16.5,13.4c0,6.3-2.5,15.1-17.6,15.1h-10.3v-28.5L1861.2,175.3L1861.2,175.3z"/>
				<path class="st1" d="M1942,240.6c24.3,0,36-16.2,36-39.6c0-24.1-12.2-37.5-36-37.5c-24.1,0-36.2,15.8-36.2,37.5
					C1905.8,225.4,1917,240.6,1942,240.6z M1942,230.6c-16,0-22.5-12.2-22.5-28.5c0-15.3,6.6-28.8,22.5-28.8
					c16.2,0,22.5,12.2,22.5,28.8C1964.5,216.7,1957.8,230.6,1942,230.6z"/>
				<path class="st1" d="M1999.3,238.5h12.5v-29.2h12.2c8.8,0,9.5,7,10.7,13.1c2.2,11,6.3,17.1,15.5,17.1c2.1,0,3.4-0.3,3.4-0.3
					l2.2-10.4c-6.8,0-8-3.4-9.4-9.5c-1.8-8.2-2.5-11.8-7.7-14.3c8.3-3,13.2-9.2,13.2-18.9c0-11.2-6.7-20.5-25.6-20.5h-27.1
					L1999.3,238.5L1999.3,238.5z M2022.4,175.3c11.6,0,16.5,3.1,16.5,11.6c0,7-3.4,12.5-17.1,12.5h-10v-24.2L2022.4,175.3
					L2022.4,175.3z"/>
				<path class="st1" d="M2065.9,175.8h27.3v62.7h12.5v-62.7h27.3v-10.3h-67L2065.9,175.8L2065.9,175.8z"/>
				<path class="st1" d="M2150.2,238.5h49.3v-10.3h-36.8V207h29.5v-10.3h-29.5v-21h35.9v-10.3h-48.4L2150.2,238.5L2150.2,238.5z"/>
				<path class="st1" d="M2220.4,238.5h12.5v-29.2h12.2c8.8,0,9.5,7,10.7,13.1c2.2,11,6.3,17.1,15.5,17.1c2.1,0,3.4-0.3,3.4-0.3
					l2.2-10.4c-6.8,0-8-3.4-9.4-9.5c-1.8-8.2-2.5-11.8-7.7-14.3c8.3-3,13.2-9.2,13.2-18.9c0-11.2-6.7-20.5-25.6-20.5h-27.1
					L2220.4,238.5L2220.4,238.5z M2243.5,175.3c11.6,0,16.5,3.1,16.5,11.6c0,7-3.4,12.5-17.1,12.5h-10v-24.2L2243.5,175.3
					L2243.5,175.3z"/>
			</g>
		</g>
		<circle class="st2" cx="173.7" cy="173.7" r="173.7"/>
	</g>
</g>
</svg>
