<svg xmlns="http://www.w3.org/2000/svg" viewBox="0 0 1869.73 1293.75"><defs><style>.cls-1,.cls-4{fill:#fff;stroke:#0e213c;stroke-linejoin:round;}.cls-1{stroke-width:2px;}.cls-2{fill:#97cc4c;}.cls-3,.cls-5{fill:none;}.cls-4{stroke-width:3px;}.cls-5{stroke:#97cc4c;stroke-miterlimit:10;stroke-width:4px;}</style></defs><title>anim5</title><g id="anim5"><rect class="cls-1" x="1246.9" y="862.81" width="155.65" height="215.23"/><polygon class="cls-2" points="1264.19 979.53 1294.46 979.44 1294.33 981.96 1264.06 982.05 1264.19 979.53"/><rect class="cls-2" x="1264.11" y="1030.84" width="30.31" height="2.53"/><rect class="cls-2" x="1264.11" y="1051.05" width="30.31" height="2.53"/><rect class="cls-2" x="1264.11" y="878.02" width="90.94" height="5.05"/><rect class="cls-2" x="1264.11" y="899.49" width="50.52" height="2.53"/><rect class="cls-2" x="1264.11" y="909.59" width="50.52" height="2.53"/><rect class="cls-2" x="1264.11" y="919.7" width="50.52" height="2.53"/><rect class="cls-2" x="1264.11" y="929.8" width="50.52" height="2.53"/><rect class="cls-2" x="1264.11" y="939.91" width="50.52" height="2.53"/><rect class="cls-2" x="1264.11" y="950.01" width="50.52" height="2.53"/><rect class="cls-2" x="1264.11" y="960.12" width="50.52" height="2.52"/><rect class="cls-2" x="1264.11" y="970.22" width="50.52" height="2.52"/><rect class="cls-2" x="1264.11" y="1000.53" width="50.52" height="2.53"/><rect class="cls-2" x="1264.11" y="1010.63" width="50.52" height="2.53"/><rect class="cls-2" x="1264.11" y="1020.74" width="50.52" height="2.53"/><rect class="cls-2" x="1264.11" y="1040.95" width="50.52" height="2.53"/><rect class="cls-2" x="1334.83" y="899.49" width="50.52" height="2.53"/><rect class="cls-2" x="1334.83" y="909.59" width="50.52" height="2.53"/><rect class="cls-2" x="1334.83" y="919.7" width="50.52" height="2.53"/><rect class="cls-2" x="1334.83" y="929.8" width="50.52" height="2.53"/><rect class="cls-2" x="1334.83" y="980.32" width="50.52" height="2.52"/><rect class="cls-2" x="1334.83" y="958.85" width="50.52" height="5.05"/><rect class="cls-2" x="1334.83" y="990.43" width="50.52" height="2.53"/><rect class="cls-2" x="1334.83" y="1000.53" width="50.52" height="2.53"/><rect class="cls-2" x="1334.83" y="1010.63" width="50.52" height="2.53"/><rect class="cls-2" x="1334.83" y="1020.74" width="20.21" height="2.53"/><rect class="cls-2" x="1334.83" y="1040.95" width="50.52" height="2.53"/><rect class="cls-2" x="1334.83" y="1051.05" width="50.52" height="2.53"/><rect class="cls-2" x="1334.83" y="1061.15" width="20.21" height="2.53"/><rect class="cls-1" x="312.26" y="647.21" width="155.65" height="215.23"/><rect class="cls-2" x="330.1" y="671.47" width="60.62" height="5.05"/><rect class="cls-2" x="431.15" y="671.47" width="20.21" height="5.05"/><rect class="cls-2" x="330.1" y="682.83" width="80.83" height="2.53"/><rect class="cls-2" x="330.1" y="703.04" width="60.62" height="2.53"/><rect class="cls-2" x="330.1" y="713.14" width="60.62" height="2.53"/><rect class="cls-2" x="330.1" y="814.19" width="121.25" height="2.53"/><rect class="cls-2" x="330.1" y="824.29" width="121.25" height="2.53"/><rect class="cls-2" x="330.1" y="834.39" width="60.62" height="2.53"/><rect class="cls-2" x="330.1" y="723.25" width="40.42" height="2.53"/><rect class="cls-2" x="330.1" y="753.56" width="40.42" height="2.53"/><rect class="cls-2" x="330.1" y="733.35" width="50.52" height="2.53"/><rect class="cls-2" x="330.1" y="743.46" width="50.52" height="2.53"/><path class="cls-2" d="M400.83,764.93h48v-58.1h-48Zm2.4-55.68h43.19v53.26H403.23Z"/><path class="cls-2" d="M330.1,795.24H451.35V775H330.1Zm118.72-2.52H332.63V777.56h116.2Z"/><rect class="cls-1" x="467.91" y="861.75" width="155.65" height="215.23"/><rect class="cls-2" x="485.75" y="886.01" width="60.62" height="5.05"/><rect class="cls-2" x="586.79" y="886.01" width="20.21" height="5.05"/><rect class="cls-2" x="485.75" y="897.38" width="80.83" height="2.53"/><rect class="cls-2" x="485.75" y="917.59" width="60.62" height="2.53"/><rect class="cls-2" x="485.75" y="927.69" width="60.62" height="2.53"/><rect class="cls-2" x="485.75" y="1028.73" width="121.25" height="2.53"/><rect class="cls-2" x="485.75" y="1038.83" width="121.25" height="2.53"/><rect class="cls-2" x="485.75" y="1048.94" width="60.62" height="2.53"/><rect class="cls-2" x="485.75" y="937.79" width="40.42" height="2.53"/><rect class="cls-2" x="485.75" y="968.1" width="40.42" height="2.53"/><rect class="cls-2" x="485.75" y="947.9" width="50.52" height="2.53"/><rect class="cls-2" x="485.75" y="958" width="50.52" height="2.53"/><path class="cls-2" d="M556.48,979.47h48v-58.1h-48Zm2.4-55.68h43.19V977H558.88Z"/><path class="cls-2" d="M485.75,1009.78H607V989.57H485.75Zm118.72-2.52H488.28V992.1h116.2Z"/><rect class="cls-1" x="156.61" y="861.75" width="155.65" height="215.23"/><rect class="cls-2" x="163.7" y="869.59" width="60.62" height="5.05"/><rect class="cls-2" x="284.95" y="904.95" width="20.21" height="5.05"/><rect class="cls-2" x="284.95" y="926.42" width="20.21" height="2.53"/><rect class="cls-2" x="284.95" y="936.53" width="20.21" height="2.53"/><rect class="cls-2" x="284.95" y="946.63" width="20.21" height="2.53"/><rect class="cls-2" x="284.95" y="956.74" width="20.21" height="2.53"/><rect class="cls-2" x="284.95" y="976.94" width="20.21" height="2.53"/><rect class="cls-2" x="284.95" y="966.84" width="20.21" height="2.53"/><rect class="cls-2" x="163.7" y="904.95" width="30.31" height="5.05"/><rect class="cls-2" x="163.7" y="926.42" width="30.31" height="2.53"/><rect class="cls-2" x="163.7" y="1007.25" width="60.62" height="2.53"/><rect class="cls-2" x="163.7" y="1017.36" width="30.31" height="2.53"/><rect class="cls-2" x="163.7" y="936.53" width="30.31" height="2.53"/><rect class="cls-2" x="163.7" y="946.63" width="30.31" height="2.53"/><rect class="cls-2" x="163.7" y="956.74" width="30.31" height="2.53"/><rect class="cls-2" x="163.7" y="966.84" width="30.31" height="2.53"/><rect class="cls-2" x="163.7" y="976.94" width="30.31" height="2.53"/><rect class="cls-2" x="214.22" y="904.95" width="50.52" height="5.05"/><rect class="cls-2" x="214.22" y="926.42" width="30.31" height="2.53"/><rect class="cls-2" x="214.22" y="936.53" width="40.42" height="2.53"/><rect class="cls-2" x="214.22" y="946.63" width="50.52" height="2.53"/><rect class="cls-2" x="214.22" y="966.84" width="50.52" height="2.53"/><rect class="cls-2" x="214.22" y="976.94" width="40.42" height="2.53"/><rect class="cls-2" x="214.22" y="956.74" width="30.31" height="2.53"/><path class="cls-2" d="M276.84,1024.35a1.29,1.29,0,0,0-1.53.34L258,1045.57,240.77,1035a1.3,1.3,0,0,0-1-.16l-17.19,4-17.84-9.89a1.28,1.28,0,0,0-1.65.35l-16.81,22.4-17-9.64a1.29,1.29,0,0,0-1.29,0l-11.09,6.58v25.62h1v-23.28l10.74-6.37,17.32,9.84a1.28,1.28,0,0,0,1.66-.34l16.82-22.41,17.29,9.59a1.25,1.25,0,0,0,.91.13l17.16-4,17.69,10.92a1.28,1.28,0,0,0,1.66-.27l17.44-21,16.58,7.71,17,11.83v-3.09l-15.7-10.92Z"/><path class="cls-2" d="M158.65,888.53h44.21V997.15H158.65v2.53H310.21v-2.53h-34.1V888.53h34.1V886H158.65Zm46.73,0h68.2V997.15h-68.2Z"/><rect class="cls-1" x="1090.59" y="646.52" width="155.65" height="215.23"/><polygon class="cls-2" points="1107.88 763.24 1138.15 763.15 1138.02 765.67 1107.75 765.76 1107.88 763.24"/><rect class="cls-2" x="1107.79" y="814.55" width="30.31" height="2.53"/><rect class="cls-2" x="1107.79" y="834.76" width="30.31" height="2.53"/><rect class="cls-2" x="1107.79" y="661.73" width="90.94" height="5.05"/><rect class="cls-2" x="1107.79" y="683.2" width="50.52" height="2.53"/><rect class="cls-2" x="1107.79" y="693.3" width="50.52" height="2.53"/><rect class="cls-2" x="1107.79" y="703.41" width="50.52" height="2.53"/><rect class="cls-2" x="1107.79" y="713.51" width="50.52" height="2.53"/><rect class="cls-2" x="1107.79" y="723.62" width="50.52" height="2.53"/><rect class="cls-2" x="1107.79" y="733.72" width="50.52" height="2.53"/><rect class="cls-2" x="1107.79" y="743.82" width="50.52" height="2.52"/><rect class="cls-2" x="1107.79" y="753.93" width="50.52" height="2.52"/><rect class="cls-2" x="1107.79" y="784.24" width="50.52" height="2.53"/><rect class="cls-2" x="1107.79" y="794.34" width="50.52" height="2.53"/><rect class="cls-2" x="1107.79" y="804.45" width="50.52" height="2.53"/><rect class="cls-2" x="1107.79" y="824.66" width="50.52" height="2.53"/><rect class="cls-2" x="1178.52" y="683.2" width="50.52" height="2.53"/><rect class="cls-2" x="1178.52" y="693.3" width="50.52" height="2.53"/><rect class="cls-2" x="1178.52" y="703.41" width="50.52" height="2.53"/><rect class="cls-2" x="1178.52" y="713.51" width="50.52" height="2.53"/><rect class="cls-2" x="1178.52" y="764.03" width="50.52" height="2.52"/><rect class="cls-2" x="1178.52" y="742.56" width="50.52" height="5.05"/><rect class="cls-2" x="1178.52" y="774.14" width="50.52" height="2.53"/><rect class="cls-2" x="1178.52" y="784.24" width="50.52" height="2.53"/><rect class="cls-2" x="1178.52" y="794.34" width="50.52" height="2.53"/><rect class="cls-2" x="1178.52" y="804.45" width="20.21" height="2.53"/><rect class="cls-2" x="1178.52" y="824.66" width="50.52" height="2.53"/><rect class="cls-2" x="1178.52" y="834.76" width="50.52" height="2.53"/><rect class="cls-2" x="1178.52" y="844.86" width="20.21" height="2.53"/><rect class="cls-1" x="0.96" y="216.3" width="155.65" height="215.23"/><rect class="cls-2" x="18.81" y="240.56" width="60.62" height="5.05"/><rect class="cls-2" x="119.85" y="240.56" width="20.21" height="5.05"/><rect class="cls-2" x="18.81" y="251.93" width="80.83" height="2.53"/><rect class="cls-2" x="18.81" y="272.14" width="60.62" height="2.53"/><rect class="cls-2" x="18.81" y="282.24" width="60.62" height="2.53"/><rect class="cls-2" x="18.81" y="383.28" width="121.25" height="2.53"/><rect class="cls-2" x="18.81" y="393.38" width="121.25" height="2.53"/><rect class="cls-2" x="18.81" y="403.49" width="60.62" height="2.53"/><rect class="cls-2" x="18.81" y="292.34" width="40.42" height="2.53"/><rect class="cls-2" x="18.81" y="322.65" width="40.42" height="2.53"/><rect class="cls-2" x="18.81" y="302.45" width="50.52" height="2.53"/><rect class="cls-2" x="18.81" y="312.55" width="50.52" height="2.53"/><path class="cls-2" d="M89.53,334h48v-58.1h-48Zm2.4-55.68h43.19V331.6H91.93Z"/><path class="cls-2" d="M18.81,364.33H140.05V344.12H18.81Zm118.72-2.52H21.33V346.65h116.2Z"/><rect class="cls-1" x="1713.07" y="431.28" width="155.65" height="215.23"/><polygon class="cls-2" points="1730.36 548.01 1760.63 547.92 1760.5 550.44 1730.23 550.53 1730.36 548.01"/><rect class="cls-2" x="1730.28" y="599.32" width="30.31" height="2.53"/><rect class="cls-2" x="1730.28" y="619.53" width="30.31" height="2.53"/><rect class="cls-2" x="1730.28" y="446.49" width="90.94" height="5.05"/><rect class="cls-2" x="1730.28" y="467.97" width="50.52" height="2.53"/><rect class="cls-2" x="1730.28" y="478.07" width="50.52" height="2.53"/><rect class="cls-2" x="1730.28" y="488.17" width="50.52" height="2.53"/><rect class="cls-2" x="1730.28" y="498.28" width="50.52" height="2.53"/><rect class="cls-2" x="1730.28" y="508.38" width="50.52" height="2.53"/><rect class="cls-2" x="1730.28" y="518.49" width="50.52" height="2.53"/><rect class="cls-2" x="1730.28" y="528.59" width="50.52" height="2.52"/><rect class="cls-2" x="1730.28" y="538.7" width="50.52" height="2.52"/><rect class="cls-2" x="1730.28" y="569" width="50.52" height="2.53"/><rect class="cls-2" x="1730.28" y="579.11" width="50.52" height="2.53"/><rect class="cls-2" x="1730.28" y="589.21" width="50.52" height="2.53"/><rect class="cls-2" x="1730.28" y="609.42" width="50.52" height="2.53"/><rect class="cls-2" x="1801" y="467.97" width="50.52" height="2.53"/><rect class="cls-2" x="1801" y="478.07" width="50.52" height="2.53"/><rect class="cls-2" x="1801" y="488.17" width="50.52" height="2.53"/><rect class="cls-2" x="1801" y="498.28" width="50.52" height="2.53"/><rect class="cls-2" x="1801" y="548.8" width="50.52" height="2.52"/><rect class="cls-2" x="1801" y="527.33" width="50.52" height="5.05"/><rect class="cls-2" x="1801" y="558.9" width="50.52" height="2.53"/><rect class="cls-2" x="1801" y="569" width="50.52" height="2.53"/><rect class="cls-2" x="1801" y="579.11" width="50.52" height="2.53"/><rect class="cls-2" x="1801" y="589.21" width="20.21" height="2.53"/><rect class="cls-2" x="1801" y="609.42" width="50.52" height="2.53"/><rect class="cls-2" x="1801" y="619.53" width="50.52" height="2.53"/><rect class="cls-2" x="1801" y="629.63" width="20.21" height="2.53"/><rect class="cls-1" x="1557.42" y="646.52" width="155.65" height="215.23"/><rect class="cls-2" x="1575.27" y="670.78" width="60.62" height="5.05"/><rect class="cls-2" x="1676.31" y="670.78" width="20.21" height="5.05"/><rect class="cls-2" x="1575.27" y="682.14" width="80.83" height="2.53"/><rect class="cls-2" x="1575.27" y="702.35" width="60.62" height="2.53"/><rect class="cls-2" x="1575.27" y="712.45" width="60.62" height="2.53"/><rect class="cls-2" x="1575.27" y="813.5" width="121.25" height="2.53"/><rect class="cls-2" x="1575.27" y="823.6" width="121.25" height="2.53"/><rect class="cls-2" x="1575.27" y="833.7" width="60.62" height="2.53"/><rect class="cls-2" x="1575.27" y="722.56" width="40.42" height="2.53"/><rect class="cls-2" x="1575.27" y="752.87" width="40.42" height="2.53"/><rect class="cls-2" x="1575.27" y="732.66" width="50.52" height="2.53"/><rect class="cls-2" x="1575.27" y="742.77" width="50.52" height="2.53"/><path class="cls-2" d="M1646,764.24h48v-58.1h-48Zm2.4-55.68h43.19v53.26H1648.4Z"/><path class="cls-2" d="M1575.27,794.55h121.25V774.34H1575.27ZM1694,792h-116.2V776.87H1694Z"/><rect class="cls-3" width="1869.73" height="1292.69"/><rect class="cls-1" x="312.26" y="1077.69" width="155.65" height="215.23"/><path class="cls-2" d="M339.57,1187.83h49.26v19.9A30.28,30.28,0,1,0,409.61,1228h31a1.27,1.27,0,0,0,1.26-1.26v-50.52a1.26,1.26,0,0,0-1.26-1.26H404.34l-28.06-39.88a1.31,1.31,0,0,0-2.06,0l-35.68,50.72a1.26,1.26,0,0,0,1,2m99.78-10.3v48H408.71a30.38,30.38,0,0,0-17.36-17v-20.74H411a1.26,1.26,0,0,0,.82-2.23l-5.68-8.07ZM375.24,1138l33.25,47.26H342Z"/><rect class="cls-2" x="349.67" y="1103.01" width="80.83" height="5.05"/><rect class="cls-4" x="757.95" y="382.14" width="155.65" height="215.23" transform="translate(-61.69 125.16) rotate(-8.26)"/><path d="M791.48,494.52c0,.12,0,.26,0,.38.27,1.87,1.93,3.07,4.93,2.64,2.45-.36,4-1.43,3.78-3.18-.68-4.66-11.43-.67-12.44-7.62-.46-3.2,1.5-6,6.32-6.73,3.7-.54,7.12.54,7.58,3.65a6.91,6.91,0,0,1,0,.88l-3.24,1.07a2.58,2.58,0,0,0,0-.59c-.19-1.29-1.19-2.67-4.1-2.25-2.16.31-3.47,1.27-3.23,2.89.69,4.78,11.49.5,12.52,7.56.55,3.78-2.3,6.4-6.66,7-3.7.54-8-.42-8.5-4.2a2.77,2.77,0,0,1,0-.59Z"/><path d="M808,481.3l-3.53.51-.39-2.66,3.62-.53-.61-5.68,3-.44.82,5.65,5.4-.78.39,2.66-5.4.78,1.54,10.64c.34,2.37,1,3.38,2.29,3.19,1-.15,1.6-1,1.8-2.51l2.7.75c-.57,2.25-1.65,4.14-4.52,4.56-3.78.55-5.13-2.31-5.57-5.35Z"/><path d="M821.28,486.08c-.81-5.61,1.4-10.22,7.47-11.1,5.86-.85,9.34,2.34,10.24,8.53.86,5.9-1.1,10.81-7.3,11.71S822.2,492.44,821.28,486.08Zm14.2-1.64c-.7-4.82-2.92-7.22-6.32-6.72s-4.92,3.52-4.23,8.26,2.93,7,6.38,6.5S836.11,488.85,835.47,484.44Z"/><path d="M843.69,490.17l3-.43-2-13.76-3.33.48-.39-2.66,6.53-.95.6,4.12c.38-2.09,1.73-5,4.76-5.49a3.71,3.71,0,0,1,3.37,1.25l-1.45,2.88a2.52,2.52,0,0,0-2.09-.93c-2.83.41-3.63,4.56-3.71,7.5l1,7.07,3.33-.48.39,2.66-9.6,1.39Z"/><path d="M863.31,496.4a3.85,3.85,0,0,0,2.69.71c1.58-.23,2.88-2.07,2.84-5.29l0-3-9.19-15.05-2.2.32-.39-2.66,8.65-1.26.39,2.66-2.87.42,5.11,8.55c.45.78,1.09,2,1.51,2.79a18.11,18.11,0,0,1,.61-3.1l2.17-9.61-2.7.39-.39-2.66,8.23-1.19.39,2.66-2.29.33-4,17,0,3.65c0,2.55-.75,7.11-5.49,7.8a6.37,6.37,0,0,1-4.23-.79Z"/><line class="cls-5" x1="782.22" y1="527.3" x2="898.02" y2="510.49"/><rect class="cls-1" x="1401.74" y="646.94" width="155.65" height="215.23"/><path class="cls-2" d="M1429.05,757.08h49.26V777a30.28,30.28,0,1,0,20.79,20.32h31a1.27,1.27,0,0,0,1.26-1.26V745.51a1.26,1.26,0,0,0-1.26-1.26h-36.27l-28.06-39.88a1.31,1.31,0,0,0-2.06,0L1428,755.08a1.26,1.26,0,0,0,1,2m99.78-10.3v48h-30.64a30.38,30.38,0,0,0-17.36-17V757.08h19.63a1.26,1.26,0,0,0,.82-2.23l-5.68-8.07Zm-64.1-39.48L1498,754.55h-66.5Z"/><rect class="cls-2" x="1439.15" y="672.26" width="80.83" height="5.05"/><rect class="cls-1" x="934.86" y="862.63" width="155.65" height="215.23"/><path class="cls-2" d="M952.06,941.65H1073.3a1.26,1.26,0,0,0,1.26-1.26V910.08a1.26,1.26,0,0,0-1.26-1.26H952.06a1.26,1.26,0,0,0-1.26,1.26v30.31a1.26,1.26,0,0,0,1.26,1.26m1.26-30.31H1072v27.79H953.32Z"/><rect class="cls-2" x="982.37" y="918.92" width="50.52" height="2.53"/><rect class="cls-2" x="982.37" y="929.02" width="70.73" height="2.53"/><rect class="cls-2" x="952.06" y="897.45" width="40.42" height="5.05"/><path class="cls-2" d="M952.06,1002.28H1073.3a1.26,1.26,0,0,0,1.26-1.26V960.6a1.26,1.26,0,0,0-1.26-1.26H952.06a1.26,1.26,0,0,0-1.26,1.26V1001a1.26,1.26,0,0,0,1.26,1.26m1.26-40.41H1072v37.89H953.32Z"/><rect class="cls-2" x="982.37" y="969.44" width="80.83" height="2.53"/><rect class="cls-2" x="982.37" y="979.54" width="70.73" height="2.53"/><rect class="cls-2" x="982.37" y="989.65" width="70.73" height="2.53"/><rect class="cls-2" x="952.06" y="947.97" width="40.42" height="5.05"/><rect class="cls-2" x="952.06" y="878.5" width="50.52" height="2.53"/><rect class="cls-2" x="1032.89" y="878.5" width="40.42" height="2.53"/><rect class="cls-2" x="952.06" y="1019.96" width="121.25" height="2.53"/><rect class="cls-2" x="952.06" y="1030.06" width="121.25" height="2.53"/><rect class="cls-2" x="952.06" y="1040.17" width="101.04" height="2.53"/><rect class="cls-2" x="952.06" y="1050.27" width="121.25" height="2.53"/><rect class="cls-2" x="952.06" y="1060.37" width="121.25" height="2.53"/><rect class="cls-2" x="962.16" y="918.92" width="10.1" height="2.53"/><rect class="cls-2" x="962.16" y="969.44" width="10.1" height="2.53"/><rect class="cls-2" x="962.16" y="979.54" width="10.1" height="2.53"/><rect class="cls-2" x="962.16" y="989.65" width="10.1" height="2.53"/><rect class="cls-2" x="962.16" y="929.02" width="10.1" height="2.53"/><rect class="cls-1" x="1401.74" y="862.63" width="155.65" height="215.23"/><polygon class="cls-2" points="1419.03 979.36 1449.3 979.27 1449.17 981.79 1418.9 981.88 1419.03 979.36"/><rect class="cls-2" x="1418.95" y="1030.67" width="30.31" height="2.53"/><rect class="cls-2" x="1418.95" y="1050.88" width="30.31" height="2.53"/><rect class="cls-2" x="1418.95" y="877.85" width="90.94" height="5.05"/><rect class="cls-2" x="1418.95" y="899.32" width="50.52" height="2.53"/><rect class="cls-2" x="1418.95" y="909.42" width="50.52" height="2.53"/><rect class="cls-2" x="1418.95" y="919.52" width="50.52" height="2.53"/><rect class="cls-2" x="1418.95" y="929.63" width="50.52" height="2.53"/><rect class="cls-2" x="1418.95" y="939.73" width="50.52" height="2.53"/><rect class="cls-2" x="1418.95" y="949.84" width="50.52" height="2.53"/><rect class="cls-2" x="1418.95" y="959.94" width="50.52" height="2.52"/><rect class="cls-2" x="1418.95" y="970.05" width="50.52" height="2.52"/><rect class="cls-2" x="1418.95" y="1000.35" width="50.52" height="2.53"/><rect class="cls-2" x="1418.95" y="1010.46" width="50.52" height="2.53"/><rect class="cls-2" x="1418.95" y="1020.56" width="50.52" height="2.53"/><rect class="cls-2" x="1418.95" y="1040.77" width="50.52" height="2.53"/><rect class="cls-2" x="1489.67" y="899.32" width="50.52" height="2.53"/><rect class="cls-2" x="1489.67" y="909.42" width="50.52" height="2.53"/><rect class="cls-2" x="1489.67" y="919.52" width="50.52" height="2.53"/><rect class="cls-2" x="1489.67" y="929.63" width="50.52" height="2.53"/><rect class="cls-2" x="1489.67" y="980.15" width="50.52" height="2.52"/><rect class="cls-2" x="1489.67" y="958.68" width="50.52" height="5.05"/><rect class="cls-2" x="1489.67" y="990.25" width="50.52" height="2.53"/><rect class="cls-2" x="1489.67" y="1000.35" width="50.52" height="2.53"/><rect class="cls-2" x="1489.67" y="1010.46" width="50.52" height="2.53"/><rect class="cls-2" x="1489.67" y="1020.56" width="20.21" height="2.53"/><rect class="cls-2" x="1489.67" y="1040.77" width="50.52" height="2.53"/><rect class="cls-2" x="1489.67" y="1050.88" width="50.52" height="2.53"/><rect class="cls-2" x="1489.67" y="1060.98" width="20.21" height="2.53"/><rect class="cls-2" x="1117.81" y="1041.9" width="10.1" height="10.1"/><rect class="cls-1" x="1090.51" y="862.63" width="155.65" height="215.23"/><rect class="cls-2" x="1107.71" y="887.81" width="80.83" height="5.05"/><rect class="cls-2" x="1107.71" y="909.28" width="60.62" height="2.53"/><rect class="cls-2" x="1107.71" y="919.39" width="50.52" height="2.53"/><rect class="cls-2" x="1107.71" y="929.49" width="40.42" height="2.53"/><rect class="cls-2" x="1107.71" y="949.7" width="40.42" height="2.53"/><rect class="cls-2" x="1107.71" y="939.59" width="50.52" height="2.53"/><rect class="cls-2" x="1107.71" y="959.8" width="50.52" height="2.53"/><path class="cls-2" d="M1230.22,1062.1v-60.62h-2.53v59.36h-120v2.53H1229a1.26,1.26,0,0,0,1.26-1.26"/><rect class="cls-2" x="1198.64" y="1050.74" width="20.21" height="2.53"/><rect class="cls-2" x="1208.75" y="1040.63" width="10.1" height="2.53"/><rect class="cls-2" x="1208.75" y="1030.53" width="10.1" height="2.53"/><rect class="cls-2" x="1198.64" y="1020.42" width="20.21" height="2.53"/><path class="cls-2" d="M1175.73,936.53a1.27,1.27,0,0,0,.37.9,1.25,1.25,0,0,0,.89.37h24.71v24.7a1.28,1.28,0,0,0,.37.9,1.25,1.25,0,0,0,.89.37h0a27.18,27.18,0,1,0-27.24-27.23m27.18-24.6a24.66,24.66,0,0,1,1.32,49.28V936.54a1.26,1.26,0,0,0-1.26-1.26h-24.67a24.7,24.7,0,0,1,24.62-23.34"/><path class="cls-2" d="M1168.33,945.25a25.92,25.92,0,0,0,25.92,25.92h.05v-26h-26s0,0,0,.05"/><rect class="cls-2" x="1132.97" y="1031.79" width="10.1" height="20.21"/><rect class="cls-2" x="1178.43" y="1021.69" width="10.1" height="30.31"/><rect class="cls-2" x="1163.28" y="1041.9" width="10.1" height="10.1"/><rect class="cls-2" x="1148.12" y="1011.58" width="10.1" height="40.42"/><rect class="cls-1" x="779.21" y="862.63" width="155.65" height="215.23"/><rect class="cls-2" x="797.05" y="886.89" width="60.62" height="5.05"/><rect class="cls-2" x="898.09" y="886.89" width="20.21" height="5.05"/><rect class="cls-2" x="797.05" y="898.26" width="80.83" height="2.53"/><rect class="cls-2" x="797.05" y="918.47" width="60.62" height="2.53"/><rect class="cls-2" x="797.05" y="928.57" width="60.62" height="2.53"/><rect class="cls-2" x="797.05" y="1029.61" width="121.25" height="2.53"/><rect class="cls-2" x="797.05" y="1039.72" width="121.25" height="2.53"/><rect class="cls-2" x="797.05" y="1049.82" width="60.62" height="2.53"/><rect class="cls-2" x="797.05" y="938.68" width="40.42" height="2.53"/><rect class="cls-2" x="797.05" y="968.99" width="40.42" height="2.53"/><rect class="cls-2" x="797.05" y="948.78" width="50.52" height="2.53"/><rect class="cls-2" x="797.05" y="958.88" width="50.52" height="2.53"/><path class="cls-2" d="M867.78,980.35h48v-58.1h-48Zm2.4-55.68h43.19v53.26H870.18Z"/><path class="cls-2" d="M797.05,1010.67H918.3V990.46H797.05Zm118.72-2.52H799.58V993h116.2Z"/></g></svg>