<svg xmlns="http://www.w3.org/2000/svg" viewBox="0 0 1869.73 1293.75"><defs><style>.cls-1,.cls-4{fill:#fff;stroke:#0e213c;stroke-linejoin:round;}.cls-1{stroke-width:2px;}.cls-2{fill:#97cc4c;}.cls-3,.cls-5{fill:none;}.cls-4{stroke-width:3px;}.cls-5{stroke:#97cc4c;stroke-miterlimit:10;stroke-width:4px;}</style></defs><title>anim2</title><g id="anim2"><rect class="cls-1" x="1246.09" y="1.08" width="155.65" height="215.23"/><rect class="cls-2" x="1322.19" y="40.24" width="1.72" height="2.46"/><rect class="cls-2" x="1283.51" y="26.34" width="80.83" height="5.05"/><rect class="cls-2" x="1293.61" y="37.71" width="60.62" height="2.53"/><path class="cls-2" d="M1275.93,190.53h15.16a2.53,2.53,0,0,0,2.53-2.53V172.85a2.53,2.53,0,0,0-2.53-2.53h-6.32V150.12h6.32a2.53,2.53,0,0,0,2.53-2.53V132.43a2.53,2.53,0,0,0-2.53-2.53h-6.32V117.28a6.32,6.32,0,0,1,6.32-6.31h31.57v18.94h-6.32a2.53,2.53,0,0,0-2.53,2.53v15.16a2.53,2.53,0,0,0,2.53,2.53h6.32v20.21h-6.32a2.53,2.53,0,0,0-2.53,2.53V188a2.53,2.53,0,0,0,2.53,2.53h15.16A2.53,2.53,0,0,0,1334,188V172.85a2.53,2.53,0,0,0-2.53-2.53h-6.32V150.12h6.32a2.53,2.53,0,0,0,2.53-2.53V132.43a2.53,2.53,0,0,0-2.53-2.53h-6.32V111h31.57a6.32,6.32,0,0,1,6.32,6.31v12.63h-6.32a2.53,2.53,0,0,0-2.53,2.53v15.16a2.53,2.53,0,0,0,2.53,2.53h15.16a2.53,2.53,0,0,0,2.52-2.53V132.43a2.52,2.52,0,0,0-2.52-2.53h-6.32V117.28a8.85,8.85,0,0,0-8.84-8.84h-31.57V89.49h6.32A2.53,2.53,0,0,0,1334,87V71.81a2.53,2.53,0,0,0-2.53-2.53h-15.16a2.53,2.53,0,0,0-2.53,2.53V87a2.53,2.53,0,0,0,2.53,2.53h6.32v18.95h-31.57a8.85,8.85,0,0,0-8.84,8.84v12.63h-6.32a2.53,2.53,0,0,0-2.53,2.53v15.16a2.53,2.53,0,0,0,2.53,2.53h6.32v20.21h-6.32a2.53,2.53,0,0,0-2.53,2.53V188a2.53,2.53,0,0,0,2.53,2.53"/><rect class="cls-1" x="312.26" y="1.08" width="155.65" height="215.23"/><path class="cls-2" d="M339.57,111.22h49.26v19.9a30.28,30.28,0,1,0,20.79,20.32h31a1.27,1.27,0,0,0,1.26-1.26V99.65a1.26,1.26,0,0,0-1.26-1.26H404.34L376.28,58.51a1.31,1.31,0,0,0-2.06,0l-35.68,50.72a1.26,1.26,0,0,0,1,2m99.78-10.3v48H408.71a30.38,30.38,0,0,0-17.36-17V111.22H411a1.26,1.26,0,0,0,.82-2.23l-5.68-8.07Zm-64.1-39.48,33.25,47.26H342Z"/><rect class="cls-2" x="349.67" y="26.4" width="80.83" height="5.05"/><rect class="cls-1" x="623.56" y="1.08" width="155.65" height="215.23"/><path class="cls-2" d="M640.76,69h60.62V28.56H640.76Zm35.4-31.91A10.29,10.29,0,0,1,679.23,44c-1.53-.77-3.86-2.38-3.86-5.15a.83.83,0,0,0,0-.22,11.16,11.16,0,0,0,.83-1.56m-13.24,5.84c.67-4,3-7.65,8.08-7.65a8.09,8.09,0,0,1,3.57.78c-.54,1.52-3,6.58-11.65,6.86m-.19,1.88c5.59-.13,9-2.11,11-4.17.89,3.2,4.06,4.86,5.5,5.45-.35,5.49-5.1,9.56-8.25,9.56s-8.31-4.38-8.31-10.19c0-.22,0-.44,0-.66M668.52,57a7,7,0,0,0,2.48.55,7.19,7.19,0,0,0,2.71-.64,6.23,6.23,0,0,0,1.68,4,6.83,6.83,0,0,1-3.65,1.18,9.75,9.75,0,0,1-5.57-1.19A5.89,5.89,0,0,0,668.52,57m-4.19,4.92A10.56,10.56,0,0,0,671,64q.45,0,.9,0A8,8,0,0,0,677,62a11.66,11.66,0,0,0,4.8.86,6.82,6.82,0,0,1,6.56,3.62h-34.8c1-2.47,2.4-3.68,5.75-3.68a13.46,13.46,0,0,0,5.05-.9m34.52,4.57h-8.4c-1.84-3.77-4.56-5.5-8.68-5.5-4.52,0-6.29-1.41-6.29-5h0a13.06,13.06,0,0,0,5.7-10.46s0-.05,0-.08h0c0-7.27-4-12-10.18-12s-10.19,4.73-10.19,12.06A13,13,0,0,0,666.73,56c-.12,4.48-5.72,4.85-7.45,4.85-4.62,0-6.52,2.1-7.75,5.55h-8.25V31.08h55.57Z"/><path class="cls-2" d="M762,139.7H640.76v60.62H762Zm-118.72,2.53h116.2v31.22l-7.63-5.13a4.2,4.2,0,0,0-7.15-4.15L738,160.88a4.21,4.21,0,1,0-8.32-.95,4.17,4.17,0,0,0,.7,2.33l-8.91,10.37a4.14,4.14,0,0,0-1.87-.46,4.19,4.19,0,0,0-3.12,1.4l-7.15-3.78a4.18,4.18,0,0,0,.13-1,4.21,4.21,0,0,0-8.4-.38l-5.93.94a4.22,4.22,0,0,0-3.88-2.55,4.18,4.18,0,0,0-3.14,1.43l-7.14-3.7a4.5,4.5,0,0,0,0-.47,4.22,4.22,0,1,0-7.71,2.36l-8.74,11.76a4.17,4.17,0,0,0-4.69,1l-7.17-3.92a4.21,4.21,0,1,0-8.18-1.38,4.15,4.15,0,0,0,.25,1.36l-1.51.86Zm104.61,22.32a2.34,2.34,0,1,1-2.34,2.35,2.34,2.34,0,0,1,2.34-2.35m-16.32-4.62a2.34,2.34,0,1,1,2.34,2.34,2.34,2.34,0,0,1-2.34-2.34m-12,14.12a2.34,2.34,0,1,1-2.35,2.35,2.35,2.35,0,0,1,2.35-2.35m-14.35-2.91a2.34,2.34,0,1,1,2.34-2.34,2.34,2.34,0,0,1-2.34,2.34m-14-2.46a2.34,2.34,0,1,1-2.34,2.34,2.34,2.34,0,0,1,2.34-2.34m-16.8-4.61a2.34,2.34,0,1,1,2.34,2.34,2.34,2.34,0,0,1-2.34-2.34M663,179.75a2.34,2.34,0,1,1-2.34,2.34,2.34,2.34,0,0,1,2.34-2.34m-16.56-5.82a2.34,2.34,0,1,1,2.34,2.34,2.35,2.35,0,0,1-2.34-2.34m-3.14,23.87V178.61l2.66-1.58a4.15,4.15,0,0,0,5.65,0l7.32,4a4.08,4.08,0,0,0-.15,1,4.22,4.22,0,1,0,7.47-2.65l8.64-11.64a4.16,4.16,0,0,0,1.94.49,4.21,4.21,0,0,0,3.45-1.8l6.91,3.58a4.17,4.17,0,0,0-.12,1,4.21,4.21,0,0,0,8.4.38l5.93-.95a4.2,4.2,0,0,0,7,1.15l7.15,3.78a4.21,4.21,0,1,0,7.53-1.43l8.88-10.33a4.16,4.16,0,0,0,2,.52,4.2,4.2,0,0,0,3.15-1.44l6.71,3.3a4.33,4.33,0,0,0-.1.89,4.22,4.22,0,0,0,4.22,4.22,4.17,4.17,0,0,0,2.8-1.09l8.79,5.91V197.8Z"/><rect class="cls-2" x="640.76" y="87.92" width="121.25" height="2.53"/><rect class="cls-2" x="640.76" y="98.02" width="121.25" height="2.53"/><rect class="cls-2" x="640.76" y="108.13" width="121.25" height="2.53"/><rect class="cls-2" x="640.76" y="118.23" width="50.52" height="2.53"/><rect class="cls-2" x="711.49" y="37.4" width="50.52" height="2.53"/><rect class="cls-2" x="711.49" y="47.5" width="40.42" height="2.53"/><rect class="cls-1" x="1557.39" y="1.08" width="155.65" height="215.23"/><path class="cls-2" d="M1574.59,69h60.62V28.56h-60.62ZM1610,37.06a10.29,10.29,0,0,1,3.07,6.92c-1.53-.77-3.86-2.38-3.86-5.15a.83.83,0,0,0,0-.22,11.16,11.16,0,0,0,.83-1.56m-13.24,5.84c.67-4,3-7.65,8.08-7.65a8.09,8.09,0,0,1,3.57.78c-.54,1.52-3,6.58-11.65,6.86m-.19,1.88c5.59-.13,9-2.11,11-4.17.89,3.2,4.06,4.86,5.5,5.45-.35,5.49-5.1,9.56-8.25,9.56s-8.31-4.38-8.31-10.19c0-.22,0-.44,0-.66m5.8,12.17a7,7,0,0,0,2.48.55,7.19,7.19,0,0,0,2.71-.64,6.23,6.23,0,0,0,1.68,4,6.83,6.83,0,0,1-3.65,1.18,9.75,9.75,0,0,1-5.57-1.19,5.89,5.89,0,0,0,2.36-3.94m-4.19,4.92a10.56,10.56,0,0,0,6.63,2.11q.45,0,.9,0a8,8,0,0,0,5.12-2,11.66,11.66,0,0,0,4.8.86,6.82,6.82,0,0,1,6.56,3.62h-34.8c1-2.47,2.4-3.68,5.75-3.68a13.46,13.46,0,0,0,5.05-.9m34.52,4.57h-8.4c-1.84-3.77-4.56-5.5-8.68-5.5-4.52,0-6.29-1.41-6.29-5h0a13.06,13.06,0,0,0,5.7-10.46s0-.05,0-.08h0c0-7.27-4-12-10.18-12s-10.19,4.73-10.19,12.06a13,13,0,0,0,5.93,10.6c-.12,4.48-5.72,4.85-7.45,4.85-4.62,0-6.52,2.1-7.75,5.55h-8.25V31.08h55.57Z"/><path class="cls-2" d="M1695.84,139.7H1574.59v60.62h121.25Zm-118.72,2.53h116.2v31.22l-7.63-5.13a4.2,4.2,0,0,0-7.15-4.15l-6.69-3.29a4.21,4.21,0,1,0-8.32-.95,4.17,4.17,0,0,0,.7,2.33l-8.91,10.37a4.14,4.14,0,0,0-1.87-.46,4.19,4.19,0,0,0-3.12,1.4l-7.15-3.78a4.18,4.18,0,0,0,.13-1,4.21,4.21,0,0,0-8.4-.38l-5.93.94a4.22,4.22,0,0,0-3.88-2.55,4.18,4.18,0,0,0-3.14,1.43l-7.14-3.7a4.5,4.5,0,0,0,0-.47,4.22,4.22,0,1,0-7.71,2.36l-8.74,11.76a4.17,4.17,0,0,0-4.69,1l-7.17-3.92a4.21,4.21,0,1,0-8.18-1.38,4.15,4.15,0,0,0,.25,1.36l-1.51.86Zm104.61,22.32a2.34,2.34,0,1,1-2.34,2.35,2.34,2.34,0,0,1,2.34-2.35m-16.32-4.62a2.34,2.34,0,1,1,2.34,2.34,2.34,2.34,0,0,1-2.34-2.34m-12,14.12a2.34,2.34,0,1,1-2.35,2.35,2.35,2.35,0,0,1,2.35-2.35m-14.35-2.91a2.34,2.34,0,1,1,2.34-2.34,2.34,2.34,0,0,1-2.34,2.34m-14-2.46a2.34,2.34,0,1,1-2.34,2.34,2.34,2.34,0,0,1,2.34-2.34m-16.8-4.61a2.34,2.34,0,1,1,2.34,2.34,2.34,2.34,0,0,1-2.34-2.34m-11.49,15.68a2.34,2.34,0,1,1-2.34,2.34,2.34,2.34,0,0,1,2.34-2.34m-16.56-5.82a2.34,2.34,0,1,1,2.34,2.34,2.35,2.35,0,0,1-2.34-2.34m-3.14,23.87V178.61l2.66-1.58a4.15,4.15,0,0,0,5.65,0l7.32,4a4.08,4.08,0,0,0-.15,1,4.22,4.22,0,1,0,7.47-2.65l8.64-11.64a4.16,4.16,0,0,0,1.94.49,4.21,4.21,0,0,0,3.45-1.8l6.91,3.58a4.17,4.17,0,0,0-.12,1,4.21,4.21,0,0,0,8.4.38l5.93-.95a4.2,4.2,0,0,0,7,1.15l7.15,3.78a4.21,4.21,0,1,0,7.53-1.43l8.88-10.33a4.16,4.16,0,0,0,2,.52,4.2,4.2,0,0,0,3.15-1.44l6.71,3.3a4.33,4.33,0,0,0-.1.89,4.22,4.22,0,0,0,4.22,4.22,4.17,4.17,0,0,0,2.8-1.09l8.79,5.91V197.8Z"/><rect class="cls-2" x="1574.59" y="87.92" width="121.25" height="2.53"/><rect class="cls-2" x="1574.59" y="98.02" width="121.25" height="2.53"/><rect class="cls-2" x="1574.59" y="108.13" width="121.25" height="2.53"/><rect class="cls-2" x="1574.59" y="118.23" width="50.52" height="2.53"/><rect class="cls-2" x="1645.32" y="37.4" width="50.52" height="2.53"/><rect class="cls-2" x="1645.32" y="47.5" width="40.42" height="2.53"/><rect class="cls-1" x="1557.42" y="216.05" width="155.65" height="215.23"/><rect class="cls-2" x="1575.27" y="240.31" width="60.62" height="5.05"/><rect class="cls-2" x="1676.31" y="240.31" width="20.21" height="5.05"/><rect class="cls-2" x="1575.27" y="251.68" width="80.83" height="2.53"/><rect class="cls-2" x="1575.27" y="271.89" width="60.62" height="2.53"/><rect class="cls-2" x="1575.27" y="281.99" width="60.62" height="2.53"/><rect class="cls-2" x="1575.27" y="383.03" width="121.25" height="2.53"/><rect class="cls-2" x="1575.27" y="393.13" width="121.25" height="2.53"/><rect class="cls-2" x="1575.27" y="403.24" width="60.62" height="2.53"/><rect class="cls-2" x="1575.27" y="292.09" width="40.42" height="2.53"/><rect class="cls-2" x="1575.27" y="322.4" width="40.42" height="2.53"/><rect class="cls-2" x="1575.27" y="302.2" width="50.52" height="2.53"/><rect class="cls-2" x="1575.27" y="312.3" width="50.52" height="2.53"/><path class="cls-2" d="M1646,333.77h48v-58.1h-48Zm2.4-55.68h43.19v53.26H1648.4Z"/><path class="cls-2" d="M1575.27,364.08h121.25V343.87H1575.27ZM1694,361.56h-116.2V346.4H1694Z"/><rect class="cls-1" x="779.18" y="216.05" width="155.65" height="215.23"/><path class="cls-2" d="M796.38,295.07H917.62a1.26,1.26,0,0,0,1.26-1.26V263.49a1.26,1.26,0,0,0-1.26-1.26H796.38a1.26,1.26,0,0,0-1.26,1.26v30.31a1.26,1.26,0,0,0,1.26,1.26m1.26-30.31H916.36v27.79H797.64Z"/><rect class="cls-2" x="826.69" y="272.34" width="50.52" height="2.53"/><rect class="cls-2" x="826.69" y="282.44" width="70.73" height="2.53"/><rect class="cls-2" x="796.38" y="250.86" width="40.42" height="5.05"/><path class="cls-2" d="M796.38,355.69H917.62a1.26,1.26,0,0,0,1.26-1.26V314a1.26,1.26,0,0,0-1.26-1.26H796.38a1.26,1.26,0,0,0-1.26,1.26v40.42a1.26,1.26,0,0,0,1.26,1.26m1.26-40.41H916.36v37.89H797.64Z"/><rect class="cls-2" x="826.69" y="322.86" width="80.83" height="2.53"/><rect class="cls-2" x="826.69" y="332.96" width="70.73" height="2.53"/><rect class="cls-2" x="826.69" y="343.06" width="70.73" height="2.53"/><rect class="cls-2" x="796.38" y="301.38" width="40.42" height="5.05"/><rect class="cls-2" x="796.38" y="231.92" width="50.52" height="2.53"/><rect class="cls-2" x="877.21" y="231.92" width="40.42" height="2.53"/><rect class="cls-2" x="796.38" y="373.37" width="121.25" height="2.53"/><rect class="cls-2" x="796.38" y="383.48" width="121.25" height="2.53"/><rect class="cls-2" x="796.38" y="393.58" width="101.04" height="2.53"/><rect class="cls-2" x="796.38" y="403.69" width="121.25" height="2.53"/><rect class="cls-2" x="796.38" y="413.79" width="121.25" height="2.53"/><rect class="cls-2" x="806.48" y="272.34" width="10.1" height="2.53"/><rect class="cls-2" x="806.48" y="322.86" width="10.1" height="2.53"/><rect class="cls-2" x="806.48" y="332.96" width="10.1" height="2.53"/><rect class="cls-2" x="806.48" y="343.06" width="10.1" height="2.53"/><rect class="cls-2" x="806.48" y="282.44" width="10.1" height="2.53"/><rect class="cls-1" x="1090.48" y="216.05" width="155.65" height="215.23"/><path class="cls-2" d="M1117.78,326.18H1167v19.9a30.28,30.28,0,1,0,20.79,20.32h31a1.27,1.27,0,0,0,1.26-1.26V314.62a1.26,1.26,0,0,0-1.26-1.26h-36.27l-28.06-39.88a1.31,1.31,0,0,0-2.06,0l-35.68,50.72a1.26,1.26,0,0,0,1,2m99.78-10.3v48h-30.64a30.38,30.38,0,0,0-17.36-17V326.18h19.63A1.26,1.26,0,0,0,1190,324l-5.68-8.07Zm-64.1-39.48,33.25,47.26h-66.5Z"/><rect class="cls-2" x="1127.89" y="241.37" width="80.83" height="5.05"/><rect class="cls-1" x="312.26" y="431.78" width="155.65" height="215.23"/><rect class="cls-2" x="330.1" y="456.04" width="60.62" height="5.05"/><rect class="cls-2" x="431.14" y="456.04" width="20.21" height="5.05"/><rect class="cls-2" x="330.1" y="467.41" width="80.83" height="2.53"/><rect class="cls-2" x="330.1" y="487.62" width="60.62" height="2.53"/><rect class="cls-2" x="330.1" y="497.72" width="60.62" height="2.53"/><rect class="cls-2" x="330.1" y="598.76" width="121.25" height="2.53"/><rect class="cls-2" x="330.1" y="608.86" width="121.25" height="2.53"/><rect class="cls-2" x="330.1" y="618.97" width="60.62" height="2.53"/><rect class="cls-2" x="330.1" y="507.82" width="40.42" height="2.53"/><rect class="cls-2" x="330.1" y="538.13" width="40.42" height="2.53"/><rect class="cls-2" x="330.1" y="517.93" width="50.52" height="2.53"/><rect class="cls-2" x="330.1" y="528.03" width="50.52" height="2.53"/><path class="cls-2" d="M400.83,549.5h48V491.4h-48Zm2.4-55.68h43.19v53.26H403.23Z"/><path class="cls-2" d="M330.1,579.81H451.35V559.61H330.1Zm118.72-2.52H332.63V562.13h116.2Z"/><rect class="cls-3" width="1869.73" height="1292.69"/><rect class="cls-4" x="1090.48" y="431.28" width="155.65" height="215.23"/><path d="M1127.33,549.43a3.85,3.85,0,0,0,2.56,1.09c1.6,0,3.15-1.64,3.57-4.83l.38-2.94-6.93-16.21h-2.23v-2.69h8.74v2.69h-2.9l3.82,9.2c.34.84.8,2.1,1.09,3a18.2,18.2,0,0,1,1.05-3l3.53-9.2h-2.73v-2.69h8.32v2.69h-2.31l-6.43,16.21-.5,3.61c-.38,2.52-1.76,6.93-6.55,6.93a6.36,6.36,0,0,1-4.07-1.39Z"/><path d="M1147.24,533.17c0-5.67,2.86-9.91,9-9.91,5.92,0,8.91,3.65,8.91,9.91,0,6-2.65,10.54-8.91,10.54S1147.24,539.6,1147.24,533.17Zm14.28.42c0-4.87-1.85-7.56-5.29-7.56s-5.38,2.77-5.38,7.56,1.89,7.35,5.38,7.35S1161.52,538,1161.52,533.59Z"/><path d="M1171,526.53h-3v-2.69h6.34v13c0,2.86.92,3.95,2.94,3.95,4.07,0,5.75-3.78,6.34-5.67v-8.61h-3v-2.69H1187v16.59h3v2.69h-6l-.17-3.95a7.34,7.34,0,0,1-7,4.54c-3.36,0-5.75-1.76-5.75-5.88Z"/><path d="M1193,540.44h3v-13.9h-3.36v-2.69h6.59V528c.67-2,2.44-4.75,5.5-4.75a3.71,3.71,0,0,1,3.15,1.72l-1.85,2.65a2.52,2.52,0,0,0-1.93-1.22c-2.86,0-4.24,4-4.75,6.89v7.14h3.36v2.69H1193Z"/><line class="cls-5" x1="1109.91" y1="568.35" x2="1226.92" y2="568.35"/></g></svg>