<svg xmlns="http://www.w3.org/2000/svg" viewBox="0 0 1869.73 1293.75"><defs><style>.cls-1{fill:none;}.cls-2{fill:#fff;stroke:#0e213c;stroke-linejoin:round;stroke-width:2px;}.cls-3{fill:#97cc4c;}</style></defs><title>anim6</title><g id="anim6"><rect class="cls-1" y="1.06" width="1869.73" height="1292.69"/><rect class="cls-2" x="0.96" y="432.21" width="155.65" height="215.23"/><path class="cls-3" d="M18.16,511.23H139.41a1.26,1.26,0,0,0,1.26-1.26V479.66a1.26,1.26,0,0,0-1.26-1.26H18.16a1.26,1.26,0,0,0-1.26,1.26V510a1.26,1.26,0,0,0,1.26,1.26m1.26-30.31H138.14V508.7H19.43Z"/><rect class="cls-3" x="48.47" y="488.5" width="50.52" height="2.53"/><rect class="cls-3" x="48.47" y="498.6" width="70.73" height="2.53"/><rect class="cls-3" x="18.16" y="467.03" width="40.42" height="5.05"/><path class="cls-3" d="M18.16,571.85H139.41a1.26,1.26,0,0,0,1.26-1.26V530.18a1.26,1.26,0,0,0-1.26-1.26H18.16a1.26,1.26,0,0,0-1.26,1.26v40.42a1.26,1.26,0,0,0,1.26,1.26m1.26-40.41H138.14v37.89H19.43Z"/><rect class="cls-3" x="48.47" y="539.02" width="80.83" height="2.53"/><rect class="cls-3" x="48.47" y="549.12" width="70.73" height="2.53"/><rect class="cls-3" x="48.47" y="559.23" width="70.73" height="2.53"/><rect class="cls-3" x="18.16" y="517.55" width="40.42" height="5.05"/><rect class="cls-3" x="18.16" y="448.08" width="50.52" height="2.53"/><rect class="cls-3" x="98.99" y="448.08" width="40.42" height="2.53"/><rect class="cls-3" x="18.16" y="589.54" width="121.25" height="2.53"/><rect class="cls-3" x="18.16" y="599.64" width="121.25" height="2.53"/><rect class="cls-3" x="18.16" y="609.75" width="101.04" height="2.53"/><rect class="cls-3" x="18.16" y="619.85" width="121.25" height="2.53"/><rect class="cls-3" x="18.16" y="629.95" width="121.25" height="2.53"/><rect class="cls-3" x="28.27" y="488.5" width="10.1" height="2.53"/><rect class="cls-3" x="28.27" y="539.02" width="10.1" height="2.53"/><rect class="cls-3" x="28.27" y="549.12" width="10.1" height="2.53"/><rect class="cls-3" x="28.27" y="559.23" width="10.1" height="2.53"/><rect class="cls-3" x="28.27" y="498.6" width="10.1" height="2.53"/><rect class="cls-2" x="0.96" y="647.45" width="155.65" height="215.23"/><path class="cls-3" d="M28.27,757.58H77.52v19.9A30.28,30.28,0,1,0,98.31,797.8h31a1.27,1.27,0,0,0,1.26-1.26V746a1.26,1.26,0,0,0-1.26-1.26H93L65,704.87a1.31,1.31,0,0,0-2.06,0L27.23,755.59a1.26,1.26,0,0,0,1,2M128,747.28v48H97.41a30.38,30.38,0,0,0-17.36-17V757.58H99.68a1.26,1.26,0,0,0,.82-2.23l-5.68-8.07Zm-64.1-39.48L97.2,755.05H30.7Z"/><rect class="cls-3" x="38.37" y="672.76" width="80.83" height="5.05"/><rect class="cls-2" x="0.96" y="862.63" width="155.65" height="215.23"/><path class="cls-3" d="M18.16,941.65H139.41a1.26,1.26,0,0,0,1.26-1.26V910.08a1.26,1.26,0,0,0-1.26-1.26H18.16a1.26,1.26,0,0,0-1.26,1.26v30.31a1.26,1.26,0,0,0,1.26,1.26m1.26-30.31H138.14v27.79H19.43Z"/><rect class="cls-3" x="48.47" y="918.92" width="50.52" height="2.53"/><rect class="cls-3" x="48.47" y="929.02" width="70.73" height="2.53"/><rect class="cls-3" x="18.16" y="897.45" width="40.42" height="5.05"/><path class="cls-3" d="M18.16,1002.28H139.41a1.26,1.26,0,0,0,1.26-1.26V960.6a1.26,1.26,0,0,0-1.26-1.26H18.16a1.26,1.26,0,0,0-1.26,1.26V1001a1.26,1.26,0,0,0,1.26,1.26m1.26-40.41H138.14v37.89H19.43Z"/><rect class="cls-3" x="48.47" y="969.44" width="80.83" height="2.53"/><rect class="cls-3" x="48.47" y="979.54" width="70.73" height="2.53"/><rect class="cls-3" x="48.47" y="989.65" width="70.73" height="2.53"/><rect class="cls-3" x="18.16" y="947.97" width="40.42" height="5.05"/><rect class="cls-3" x="18.16" y="878.5" width="50.52" height="2.53"/><rect class="cls-3" x="98.99" y="878.5" width="40.42" height="2.53"/><rect class="cls-3" x="18.16" y="1019.96" width="121.25" height="2.53"/><rect class="cls-3" x="18.16" y="1030.06" width="121.25" height="2.53"/><rect class="cls-3" x="18.16" y="1040.17" width="101.04" height="2.53"/><rect class="cls-3" x="18.16" y="1050.27" width="121.25" height="2.53"/><rect class="cls-3" x="18.16" y="1060.37" width="121.25" height="2.53"/><rect class="cls-3" x="28.27" y="918.92" width="10.1" height="2.53"/><rect class="cls-3" x="28.27" y="969.44" width="10.1" height="2.53"/><rect class="cls-3" x="28.27" y="979.54" width="10.1" height="2.53"/><rect class="cls-3" x="28.27" y="989.65" width="10.1" height="2.53"/><rect class="cls-3" x="28.27" y="929.02" width="10.1" height="2.53"/><rect class="cls-2" x="312.26" y="862.63" width="155.65" height="215.23"/><path class="cls-3" d="M339.57,972.77h49.26v19.9A30.28,30.28,0,1,0,409.61,1013h31a1.27,1.27,0,0,0,1.26-1.26V961.2a1.26,1.26,0,0,0-1.26-1.26H404.34l-28.06-39.88a1.31,1.31,0,0,0-2.06,0l-35.68,50.72a1.26,1.26,0,0,0,1,2m99.78-10.3v48H408.71a30.38,30.38,0,0,0-17.36-17V972.77H411a1.26,1.26,0,0,0,.82-2.23l-5.68-8.07ZM375.24,923l33.25,47.26H342Z"/><rect class="cls-3" x="349.67" y="887.95" width="80.83" height="5.05"/><path class="cls-3" d="M640.76,930.52h60.62V890.11H640.76Zm35.4-31.91a10.29,10.29,0,0,1,3.07,6.92c-1.53-.77-3.86-2.38-3.86-5.15a.83.83,0,0,0,0-.22,11.16,11.16,0,0,0,.83-1.56m-13.24,5.84c.67-4,3-7.65,8.08-7.65a8.09,8.09,0,0,1,3.57.78c-.54,1.52-3,6.58-11.65,6.86m-.19,1.88c5.59-.13,9-2.11,11-4.17.89,3.2,4.06,4.86,5.5,5.45-.35,5.49-5.1,9.56-8.25,9.56s-8.31-4.38-8.31-10.19c0-.22,0-.44,0-.66m5.8,12.17a7,7,0,0,0,2.48.55,7.19,7.19,0,0,0,2.71-.64,6.23,6.23,0,0,0,1.68,4,6.83,6.83,0,0,1-3.65,1.18,9.75,9.75,0,0,1-5.57-1.19,5.89,5.89,0,0,0,2.36-3.94m-4.19,4.92a10.56,10.56,0,0,0,6.63,2.11q.45,0,.9,0a8,8,0,0,0,5.12-2,11.66,11.66,0,0,0,4.8.86,6.82,6.82,0,0,1,6.56,3.62h-34.8c1-2.47,2.4-3.68,5.75-3.68a13.46,13.46,0,0,0,5.05-.9M698.86,928h-8.4c-1.84-3.77-4.56-5.5-8.68-5.5-4.52,0-6.29-1.41-6.29-5h0a13.06,13.06,0,0,0,5.7-10.46s0-.05,0-.08h0c0-7.27-4-12-10.18-12s-10.19,4.73-10.19,12.06a13,13,0,0,0,5.93,10.6c-.12,4.48-5.72,4.85-7.45,4.85-4.62,0-6.52,2.1-7.75,5.55h-8.25V892.63h55.57Z"/><rect class="cls-3" x="640.76" y="949.47" width="121.25" height="2.53"/><rect class="cls-3" x="640.76" y="969.68" width="121.25" height="2.53"/><rect class="cls-3" x="640.76" y="979.78" width="50.52" height="2.53"/><rect class="cls-3" x="711.49" y="898.95" width="50.52" height="2.53"/><rect class="cls-3" x="711.49" y="909.05" width="40.42" height="2.53"/><rect class="cls-2" x="623.56" y="862.63" width="155.65" height="215.23"/><path class="cls-3" d="M762,1001.25H640.76v60.62H762Zm-118.72,2.53h116.2V1035l-7.63-5.13a4.2,4.2,0,0,0-7.15-4.15l-6.69-3.29a4.21,4.21,0,1,0-8.32-.95,4.17,4.17,0,0,0,.7,2.33l-8.91,10.37a4.14,4.14,0,0,0-1.87-.46,4.19,4.19,0,0,0-3.12,1.4l-7.15-3.78a4.18,4.18,0,0,0,.13-1,4.21,4.21,0,0,0-8.4-.38l-5.93.94a4.22,4.22,0,0,0-3.88-2.55,4.18,4.18,0,0,0-3.14,1.43l-7.14-3.7a4.5,4.5,0,0,0,0-.47,4.22,4.22,0,1,0-7.71,2.36l-8.74,11.76a4.17,4.17,0,0,0-4.69,1l-7.17-3.92a4.21,4.21,0,1,0-8.18-1.38,4.15,4.15,0,0,0,.25,1.36l-1.51.86Zm104.61,22.32a2.34,2.34,0,1,1-2.34,2.35,2.34,2.34,0,0,1,2.34-2.35m-16.32-4.62a2.34,2.34,0,1,1,2.34,2.34,2.34,2.34,0,0,1-2.34-2.34m-12,14.12a2.34,2.34,0,1,1-2.35,2.35,2.35,2.35,0,0,1,2.35-2.35m-14.35-2.91a2.34,2.34,0,1,1,2.34-2.34,2.34,2.34,0,0,1-2.34,2.34m-14-2.46a2.34,2.34,0,1,1-2.34,2.34,2.34,2.34,0,0,1,2.34-2.34m-16.8-4.61a2.34,2.34,0,1,1,2.34,2.34,2.34,2.34,0,0,1-2.34-2.34M663,1041.3a2.34,2.34,0,1,1-2.34,2.34,2.34,2.34,0,0,1,2.34-2.34m-16.56-5.82a2.34,2.34,0,1,1,2.34,2.34,2.35,2.35,0,0,1-2.34-2.34m-3.14,23.87v-19.18l2.66-1.58a4.15,4.15,0,0,0,5.65,0l7.32,4a4.08,4.08,0,0,0-.15,1,4.22,4.22,0,1,0,7.47-2.65l8.64-11.64a4.16,4.16,0,0,0,1.94.49,4.21,4.21,0,0,0,3.45-1.8l6.91,3.58a4.17,4.17,0,0,0-.12,1,4.21,4.21,0,0,0,8.4.38l5.93-.95a4.2,4.2,0,0,0,7,1.15l7.15,3.78a4.21,4.21,0,1,0,7.53-1.43l8.88-10.33a4.16,4.16,0,0,0,2,.52,4.2,4.2,0,0,0,3.15-1.44l6.71,3.3a4.33,4.33,0,0,0-.1.89,4.22,4.22,0,0,0,4.22,4.22,4.17,4.17,0,0,0,2.8-1.09l8.79,5.91v21.86Z"/><rect class="cls-3" x="640.76" y="959.57" width="121.25" height="2.53"/><rect class="cls-2" x="1713.07" y="647.4" width="155.65" height="215.23"/><path class="cls-3" d="M1811.11,766.39V695.66h-80.83v70.73ZM1808.58,749l-14.63-13.11a3.34,3.34,0,0,0-4.52-.18l-20.87,19.21,7.75-11.61L1759.48,725a3.34,3.34,0,0,0-5,.08l-21.7,25.06v-52h75.78Z"/><path class="cls-3" d="M1730.28,847.22h80.83V816.9h-80.83Zm78.31-2.53H1732.8V819.43h75.78Z"/><path class="cls-3" d="M1821.21,847.22h30.31V816.9h-30.31Zm2.53-27.79H1849v25.26h-25.26Z"/><path class="cls-3" d="M1789.14,705.76a8.35,8.35,0,1,1-8.35,8.35,8.35,8.35,0,0,1,8.35-8.35"/><rect class="cls-3" x="1730.27" y="662.82" width="60.63" height="5.05"/><rect class="cls-3" x="1730.27" y="674.18" width="90.94" height="2.53"/><rect class="cls-3" x="1730.27" y="784.07" width="60.63" height="5.05"/><rect class="cls-3" x="1730.27" y="805.54" width="121.25" height="2.53"/><rect class="cls-3" x="1730.27" y="795.43" width="121.25" height="2.53"/><rect class="cls-3" x="1821.21" y="703.23" width="30.31" height="5.05"/><rect class="cls-3" x="1821.21" y="724.71" width="30.31" height="2.53"/><rect class="cls-3" x="1821.21" y="734.81" width="30.31" height="2.53"/><rect class="cls-3" x="1821.21" y="744.91" width="30.31" height="2.53"/><rect class="cls-3" x="1821.21" y="755.02" width="30.31" height="2.53"/><rect class="cls-2" x="1557.42" y="862.63" width="155.65" height="215.23"/><path class="cls-3" d="M1574.63,941.65h121.25a1.26,1.26,0,0,0,1.26-1.26V910.08a1.26,1.26,0,0,0-1.26-1.26H1574.63a1.26,1.26,0,0,0-1.26,1.26v30.31a1.26,1.26,0,0,0,1.26,1.26m1.26-30.31h118.72v27.79H1575.89Z"/><rect class="cls-3" x="1604.93" y="918.92" width="50.52" height="2.53"/><rect class="cls-3" x="1604.93" y="929.02" width="70.73" height="2.53"/><rect class="cls-3" x="1574.63" y="897.45" width="40.42" height="5.05"/><path class="cls-3" d="M1574.63,1002.28h121.25a1.26,1.26,0,0,0,1.26-1.26V960.6a1.26,1.26,0,0,0-1.26-1.26H1574.63a1.26,1.26,0,0,0-1.26,1.26V1001a1.26,1.26,0,0,0,1.26,1.26m1.26-40.41h118.72v37.89H1575.89Z"/><rect class="cls-3" x="1604.93" y="969.44" width="80.83" height="2.53"/><rect class="cls-3" x="1604.93" y="979.54" width="70.73" height="2.53"/><rect class="cls-3" x="1604.93" y="989.65" width="70.73" height="2.53"/><rect class="cls-3" x="1574.63" y="947.97" width="40.42" height="5.05"/><rect class="cls-3" x="1574.63" y="878.5" width="50.52" height="2.53"/><rect class="cls-3" x="1655.46" y="878.5" width="40.42" height="2.53"/><rect class="cls-3" x="1574.63" y="1019.96" width="121.25" height="2.53"/><rect class="cls-3" x="1574.63" y="1030.06" width="121.25" height="2.53"/><rect class="cls-3" x="1574.63" y="1040.17" width="101.04" height="2.53"/><rect class="cls-3" x="1574.63" y="1050.27" width="121.25" height="2.53"/><rect class="cls-3" x="1574.63" y="1060.37" width="121.25" height="2.53"/><rect class="cls-3" x="1584.73" y="918.92" width="10.1" height="2.53"/><rect class="cls-3" x="1584.73" y="969.44" width="10.1" height="2.53"/><rect class="cls-3" x="1584.73" y="979.54" width="10.1" height="2.53"/><rect class="cls-3" x="1584.73" y="989.65" width="10.1" height="2.53"/><rect class="cls-3" x="1584.73" y="929.02" width="10.1" height="2.53"/><rect class="cls-2" x="1713.07" y="862.63" width="155.65" height="215.23"/><rect class="cls-3" x="1720.17" y="870.47" width="60.62" height="5.05"/><rect class="cls-3" x="1841.42" y="905.84" width="20.21" height="5.05"/><rect class="cls-3" x="1841.42" y="927.31" width="20.21" height="2.53"/><rect class="cls-3" x="1841.42" y="937.41" width="20.21" height="2.53"/><rect class="cls-3" x="1841.42" y="947.51" width="20.21" height="2.53"/><rect class="cls-3" x="1841.42" y="957.62" width="20.21" height="2.53"/><rect class="cls-3" x="1841.42" y="977.83" width="20.21" height="2.53"/><rect class="cls-3" x="1841.42" y="967.72" width="20.21" height="2.53"/><rect class="cls-3" x="1720.17" y="905.84" width="30.31" height="5.05"/><rect class="cls-3" x="1720.17" y="927.31" width="30.31" height="2.53"/><rect class="cls-3" x="1720.17" y="1008.14" width="60.62" height="2.53"/><rect class="cls-3" x="1720.17" y="1018.24" width="30.31" height="2.53"/><rect class="cls-3" x="1720.17" y="937.41" width="30.31" height="2.53"/><rect class="cls-3" x="1720.17" y="947.51" width="30.31" height="2.53"/><rect class="cls-3" x="1720.17" y="957.62" width="30.31" height="2.53"/><rect class="cls-3" x="1720.17" y="967.72" width="30.31" height="2.53"/><rect class="cls-3" x="1720.17" y="977.83" width="30.31" height="2.53"/><rect class="cls-3" x="1770.69" y="905.84" width="50.52" height="5.05"/><rect class="cls-3" x="1770.69" y="927.31" width="30.31" height="2.53"/><rect class="cls-3" x="1770.69" y="937.41" width="40.42" height="2.53"/><rect class="cls-3" x="1770.69" y="947.51" width="50.52" height="2.53"/><rect class="cls-3" x="1770.69" y="967.72" width="50.52" height="2.53"/><rect class="cls-3" x="1770.69" y="977.83" width="40.42" height="2.53"/><rect class="cls-3" x="1770.69" y="957.62" width="30.31" height="2.53"/><path class="cls-3" d="M1833.3,1025.23a1.29,1.29,0,0,0-1.53.34l-17.35,20.89-17.19-10.61a1.3,1.3,0,0,0-1-.16l-17.19,4-17.84-9.89a1.28,1.28,0,0,0-1.65.35l-16.81,22.4-17-9.64a1.29,1.29,0,0,0-1.29,0l-11.09,6.58v25.62h1V1051.8l10.74-6.37,17.32,9.84a1.28,1.28,0,0,0,1.66-.34l16.82-22.41,17.29,9.59a1.25,1.25,0,0,0,.91.13l17.16-4,17.69,10.92a1.28,1.28,0,0,0,1.66-.27l17.44-21,16.58,7.71,17,11.83v-3.09l-15.7-10.92Z"/><path class="cls-3" d="M1715.11,889.42h44.21V998h-44.21v2.53h151.56V998h-34.1V889.42h34.1v-2.53H1715.11Zm46.73,0H1830V998h-68.2Z"/><rect class="cls-2" x="156.61" y="647.52" width="155.65" height="215.23"/><path class="cls-3" d="M173.81,715.41h60.62V675H173.81Zm35.4-31.91a10.29,10.29,0,0,1,3.07,6.92c-1.53-.77-3.86-2.38-3.86-5.15a.83.83,0,0,0,0-.22,11.16,11.16,0,0,0,.83-1.56M196,689.34c.67-4,3-7.65,8.08-7.65a8.09,8.09,0,0,1,3.57.78c-.54,1.52-3,6.58-11.65,6.86m-.19,1.88c5.59-.13,9-2.11,11-4.17.89,3.2,4.06,4.86,5.5,5.45-.35,5.49-5.1,9.56-8.25,9.56s-8.31-4.38-8.31-10.19c0-.22,0-.44,0-.66m5.8,12.17a7,7,0,0,0,2.48.55,7.19,7.19,0,0,0,2.71-.64,6.23,6.23,0,0,0,1.68,4,6.83,6.83,0,0,1-3.65,1.18,9.75,9.75,0,0,1-5.57-1.19,5.89,5.89,0,0,0,2.36-3.94m-4.19,4.92a10.56,10.56,0,0,0,6.63,2.11q.45,0,.9,0a8,8,0,0,0,5.12-2,11.66,11.66,0,0,0,4.8.86,6.82,6.82,0,0,1,6.56,3.62h-34.8c1-2.47,2.4-3.68,5.75-3.68a13.46,13.46,0,0,0,5.05-.9m34.52,4.57h-8.4c-1.84-3.77-4.56-5.5-8.68-5.5-4.52,0-6.29-1.41-6.29-5h0a13.06,13.06,0,0,0,5.7-10.46s0-.05,0-.08h0c0-7.27-4-12-10.18-12s-10.19,4.73-10.19,12.06a13,13,0,0,0,5.93,10.6c-.12,4.48-5.72,4.85-7.45,4.85-4.62,0-6.52,2.1-7.75,5.55h-8.25V677.52h55.57Z"/><path class="cls-3" d="M295.06,786.13H173.81v60.62H295.06Zm-118.72,2.53h116.2v31.22l-7.63-5.13a4.2,4.2,0,0,0-7.15-4.15l-6.69-3.29a4.21,4.21,0,1,0-8.32-.95,4.17,4.17,0,0,0,.7,2.33l-8.91,10.37a4.14,4.14,0,0,0-1.87-.46,4.19,4.19,0,0,0-3.12,1.4l-7.15-3.78a4.18,4.18,0,0,0,.13-1,4.21,4.21,0,0,0-8.4-.38l-5.93.94a4.22,4.22,0,0,0-3.88-2.55,4.18,4.18,0,0,0-3.14,1.43L214,811a4.5,4.5,0,0,0,0-.47,4.22,4.22,0,1,0-7.71,2.36l-8.74,11.76a4.17,4.17,0,0,0-4.69,1l-7.17-3.92a4.21,4.21,0,1,0-8.18-1.38,4.15,4.15,0,0,0,.25,1.36l-1.51.86ZM280.94,811a2.34,2.34,0,1,1-2.34,2.35,2.34,2.34,0,0,1,2.34-2.35m-16.32-4.62A2.34,2.34,0,1,1,267,808.7a2.34,2.34,0,0,1-2.34-2.34m-12,14.12a2.34,2.34,0,1,1-2.35,2.35,2.35,2.35,0,0,1,2.35-2.35m-14.35-2.91a2.34,2.34,0,1,1,2.34-2.34,2.34,2.34,0,0,1-2.34,2.34m-14-2.46a2.34,2.34,0,1,1-2.34,2.34,2.34,2.34,0,0,1,2.34-2.34m-16.8-4.61a2.34,2.34,0,1,1,2.34,2.34,2.34,2.34,0,0,1-2.34-2.34M196,826.18a2.34,2.34,0,1,1-2.34,2.34,2.34,2.34,0,0,1,2.34-2.34m-16.56-5.82a2.34,2.34,0,1,1,2.34,2.34,2.35,2.35,0,0,1-2.34-2.34m-3.14,23.87V825l2.66-1.58a4.15,4.15,0,0,0,5.65,0l7.32,4a4.08,4.08,0,0,0-.15,1,4.22,4.22,0,1,0,7.47-2.65l8.64-11.64a4.16,4.16,0,0,0,1.94.49,4.21,4.21,0,0,0,3.45-1.8l6.91,3.58a4.17,4.17,0,0,0-.12,1,4.21,4.21,0,0,0,8.4.38l5.93-.95a4.2,4.2,0,0,0,7,1.15l7.15,3.78a4.21,4.21,0,1,0,7.53-1.43L265,810.06a4.16,4.16,0,0,0,2,.52,4.2,4.2,0,0,0,3.15-1.44l6.71,3.3a4.33,4.33,0,0,0-.1.89,4.22,4.22,0,0,0,4.22,4.22,4.17,4.17,0,0,0,2.8-1.09l8.79,5.91v21.86Z"/><rect class="cls-3" x="173.81" y="734.35" width="121.25" height="2.53"/><rect class="cls-3" x="173.81" y="744.46" width="121.25" height="2.53"/><rect class="cls-3" x="173.81" y="754.56" width="121.25" height="2.53"/><rect class="cls-3" x="173.81" y="764.66" width="50.52" height="2.53"/><rect class="cls-3" x="244.54" y="683.83" width="50.52" height="2.53"/><rect class="cls-3" x="244.54" y="693.93" width="40.42" height="2.53"/><rect class="cls-2" x="0.96" y="1077.69" width="155.65" height="215.23"/><path class="cls-3" d="M18.16,1156.71H139.41a1.26,1.26,0,0,0,1.26-1.26v-30.31a1.26,1.26,0,0,0-1.26-1.26H18.16a1.26,1.26,0,0,0-1.26,1.26v30.31a1.26,1.26,0,0,0,1.26,1.26m1.26-30.31H138.14v27.79H19.43Z"/><rect class="cls-3" x="48.47" y="1133.98" width="50.52" height="2.53"/><rect class="cls-3" x="48.47" y="1144.08" width="70.73" height="2.53"/><rect class="cls-3" x="18.16" y="1112.51" width="40.42" height="5.05"/><path class="cls-3" d="M18.16,1217.34H139.41a1.26,1.26,0,0,0,1.26-1.26v-40.42a1.26,1.26,0,0,0-1.26-1.26H18.16a1.26,1.26,0,0,0-1.26,1.26v40.42a1.26,1.26,0,0,0,1.26,1.26m1.26-40.41H138.14v37.89H19.43Z"/><rect class="cls-3" x="48.47" y="1184.5" width="80.83" height="2.53"/><rect class="cls-3" x="48.47" y="1194.6" width="70.73" height="2.53"/><rect class="cls-3" x="48.47" y="1204.71" width="70.73" height="2.53"/><rect class="cls-3" x="18.16" y="1163.03" width="40.42" height="5.05"/><rect class="cls-3" x="18.16" y="1093.56" width="50.52" height="2.53"/><rect class="cls-3" x="98.99" y="1093.56" width="40.42" height="2.53"/><rect class="cls-3" x="18.16" y="1235.02" width="121.25" height="2.53"/><rect class="cls-3" x="18.16" y="1245.12" width="121.25" height="2.53"/><rect class="cls-3" x="18.16" y="1255.23" width="101.04" height="2.53"/><rect class="cls-3" x="18.16" y="1265.33" width="121.25" height="2.53"/><rect class="cls-3" x="18.16" y="1275.44" width="121.25" height="2.53"/><rect class="cls-3" x="28.27" y="1133.98" width="10.1" height="2.53"/><rect class="cls-3" x="28.27" y="1184.5" width="10.1" height="2.53"/><rect class="cls-3" x="28.27" y="1194.6" width="10.1" height="2.53"/><rect class="cls-3" x="28.27" y="1204.71" width="10.1" height="2.53"/><rect class="cls-3" x="28.27" y="1144.08" width="10.1" height="2.53"/><rect class="cls-2" x="1713.04" y="1077.69" width="155.65" height="215.23"/><rect class="cls-3" x="1730.89" y="1101.95" width="60.62" height="5.05"/><rect class="cls-3" x="1831.93" y="1101.95" width="20.21" height="5.05"/><rect class="cls-3" x="1730.89" y="1113.32" width="80.83" height="2.53"/><rect class="cls-3" x="1730.89" y="1133.53" width="60.62" height="2.53"/><rect class="cls-3" x="1730.89" y="1143.63" width="60.62" height="2.53"/><rect class="cls-3" x="1730.89" y="1244.67" width="121.25" height="2.53"/><rect class="cls-3" x="1730.89" y="1254.78" width="121.25" height="2.53"/><rect class="cls-3" x="1730.89" y="1264.88" width="60.62" height="2.53"/><rect class="cls-3" x="1730.89" y="1153.74" width="40.42" height="2.53"/><rect class="cls-3" x="1730.89" y="1184.05" width="40.42" height="2.53"/><rect class="cls-3" x="1730.89" y="1163.84" width="50.52" height="2.53"/><rect class="cls-3" x="1730.89" y="1173.95" width="50.52" height="2.53"/><path class="cls-3" d="M1801.61,1195.42h48v-58.1h-48Zm2.4-55.68h43.19V1193H1804Z"/><path class="cls-3" d="M1730.89,1225.73h121.25v-20.21H1730.89Zm118.72-2.52h-116.2V1208h116.2Z"/><rect class="cls-2" x="1246.09" y="1077.69" width="155.65" height="215.23"/><rect class="cls-3" x="1322.19" y="1116.85" width="1.72" height="2.46"/><rect class="cls-3" x="1283.51" y="1102.95" width="80.83" height="5.05"/><rect class="cls-3" x="1293.61" y="1114.32" width="60.62" height="2.53"/><path class="cls-3" d="M1275.93,1267.14h15.16a2.53,2.53,0,0,0,2.53-2.53v-15.16a2.53,2.53,0,0,0-2.53-2.53h-6.32v-20.21h6.32a2.53,2.53,0,0,0,2.53-2.53V1209a2.53,2.53,0,0,0-2.53-2.53h-6.32v-12.63a6.32,6.32,0,0,1,6.32-6.31h31.57v18.94h-6.32a2.53,2.53,0,0,0-2.53,2.53v15.16a2.53,2.53,0,0,0,2.53,2.53h6.32v20.21h-6.32a2.53,2.53,0,0,0-2.53,2.53v15.16a2.53,2.53,0,0,0,2.53,2.53h15.16a2.53,2.53,0,0,0,2.53-2.53v-15.16a2.53,2.53,0,0,0-2.53-2.53h-6.32v-20.21h6.32a2.53,2.53,0,0,0,2.53-2.53V1209a2.53,2.53,0,0,0-2.53-2.53h-6.32v-18.94h31.57a6.32,6.32,0,0,1,6.32,6.31v12.63h-6.32a2.53,2.53,0,0,0-2.53,2.53v15.16a2.53,2.53,0,0,0,2.53,2.53h15.16a2.53,2.53,0,0,0,2.52-2.53V1209a2.52,2.52,0,0,0-2.52-2.53h-6.32v-12.63a8.85,8.85,0,0,0-8.84-8.84h-31.57V1166.1h6.32a2.53,2.53,0,0,0,2.53-2.53v-15.15a2.53,2.53,0,0,0-2.53-2.53h-15.16a2.53,2.53,0,0,0-2.53,2.53v15.15a2.53,2.53,0,0,0,2.53,2.53h6.32V1185h-31.57a8.85,8.85,0,0,0-8.84,8.84v12.63h-6.32a2.53,2.53,0,0,0-2.53,2.53v15.16a2.53,2.53,0,0,0,2.53,2.53h6.32v20.21h-6.32a2.53,2.53,0,0,0-2.53,2.53v15.16a2.53,2.53,0,0,0,2.53,2.53"/><rect class="cls-2" x="623.56" y="1077.69" width="155.65" height="215.23"/><path class="cls-3" d="M640.76,1145.58h60.62v-40.42H640.76Zm35.4-31.91a10.29,10.29,0,0,1,3.07,6.92c-1.53-.77-3.86-2.38-3.86-5.15a.83.83,0,0,0,0-.22,11.16,11.16,0,0,0,.83-1.56m-13.24,5.84c.67-4,3-7.65,8.08-7.65a8.09,8.09,0,0,1,3.57.78c-.54,1.52-3,6.58-11.65,6.86m-.19,1.88c5.59-.13,9-2.11,11-4.17.89,3.2,4.06,4.86,5.5,5.45-.35,5.49-5.1,9.56-8.25,9.56s-8.31-4.38-8.31-10.19c0-.22,0-.44,0-.66m5.8,12.17a7,7,0,0,0,2.48.55,7.19,7.19,0,0,0,2.71-.64,6.23,6.23,0,0,0,1.68,4,6.83,6.83,0,0,1-3.65,1.18,9.75,9.75,0,0,1-5.57-1.19,5.89,5.89,0,0,0,2.36-3.94m-4.19,4.92a10.56,10.56,0,0,0,6.63,2.11q.45,0,.9,0a8,8,0,0,0,5.12-2,11.66,11.66,0,0,0,4.8.86,6.82,6.82,0,0,1,6.56,3.62h-34.8c1-2.47,2.4-3.68,5.75-3.68a13.46,13.46,0,0,0,5.05-.9m34.52,4.57h-8.4c-1.84-3.77-4.56-5.5-8.68-5.5-4.52,0-6.29-1.41-6.29-5h0a13.06,13.06,0,0,0,5.7-10.46s0-.05,0-.08h0c0-7.27-4-12-10.18-12s-10.19,4.73-10.19,12.06a13,13,0,0,0,5.93,10.6c-.12,4.48-5.72,4.85-7.45,4.85-4.62,0-6.52,2.1-7.75,5.55h-8.25v-35.36h55.57Z"/><path class="cls-3" d="M762,1216.31H640.76v60.62H762Zm-118.72,2.53h116.2v31.22l-7.63-5.13a4.2,4.2,0,0,0-7.15-4.15l-6.69-3.29a4.21,4.21,0,1,0-8.32-.95,4.17,4.17,0,0,0,.7,2.33l-8.91,10.37a4.14,4.14,0,0,0-1.87-.46,4.19,4.19,0,0,0-3.12,1.4l-7.15-3.78a4.18,4.18,0,0,0,.13-1,4.21,4.21,0,0,0-8.4-.38l-5.93.94a4.22,4.22,0,0,0-3.88-2.55,4.18,4.18,0,0,0-3.14,1.43l-7.14-3.7a4.5,4.5,0,0,0,0-.47,4.22,4.22,0,1,0-7.71,2.36l-8.74,11.76a4.17,4.17,0,0,0-4.69,1l-7.17-3.92a4.21,4.21,0,1,0-8.18-1.38,4.15,4.15,0,0,0,.25,1.36l-1.51.86Zm104.61,22.32a2.34,2.34,0,1,1-2.34,2.35,2.34,2.34,0,0,1,2.34-2.35m-16.32-4.62a2.34,2.34,0,1,1,2.34,2.34,2.34,2.34,0,0,1-2.34-2.34m-12,14.12a2.34,2.34,0,1,1-2.35,2.35,2.35,2.35,0,0,1,2.35-2.35m-14.35-2.91a2.34,2.34,0,1,1,2.34-2.34,2.34,2.34,0,0,1-2.34,2.34m-14-2.46a2.34,2.34,0,1,1-2.34,2.34,2.34,2.34,0,0,1,2.34-2.34m-16.8-4.61a2.34,2.34,0,1,1,2.34,2.34,2.34,2.34,0,0,1-2.34-2.34M663,1256.36a2.34,2.34,0,1,1-2.34,2.34,2.34,2.34,0,0,1,2.34-2.34m-16.56-5.82a2.34,2.34,0,1,1,2.34,2.34,2.35,2.35,0,0,1-2.34-2.34m-3.14,23.87v-19.18l2.66-1.58a4.15,4.15,0,0,0,5.65,0l7.32,4a4.08,4.08,0,0,0-.15,1,4.22,4.22,0,1,0,7.47-2.65l8.64-11.64a4.16,4.16,0,0,0,1.94.49,4.21,4.21,0,0,0,3.45-1.8l6.91,3.58a4.17,4.17,0,0,0-.12,1,4.21,4.21,0,0,0,8.4.38l5.93-.95a4.2,4.2,0,0,0,7,1.15l7.15,3.78a4.21,4.21,0,1,0,7.53-1.43l8.88-10.33a4.16,4.16,0,0,0,2,.52,4.2,4.2,0,0,0,3.15-1.44l6.71,3.3a4.33,4.33,0,0,0-.1.89,4.22,4.22,0,0,0,4.22,4.22,4.17,4.17,0,0,0,2.8-1.09l8.79,5.91v21.86Z"/><rect class="cls-3" x="640.76" y="1164.53" width="121.25" height="2.53"/><rect class="cls-3" x="640.76" y="1174.63" width="121.25" height="2.53"/><rect class="cls-3" x="640.76" y="1184.74" width="121.25" height="2.53"/><rect class="cls-3" x="640.76" y="1194.84" width="50.52" height="2.53"/><rect class="cls-3" x="711.49" y="1114.01" width="50.52" height="2.53"/><rect class="cls-3" x="711.49" y="1124.11" width="40.42" height="2.53"/><rect class="cls-2" x="1557.39" y="1077.69" width="155.65" height="215.23"/><path class="cls-3" d="M1574.59,1145.58h60.62v-40.42h-60.62Zm35.4-31.91a10.29,10.29,0,0,1,3.07,6.92c-1.53-.77-3.86-2.38-3.86-5.15a.83.83,0,0,0,0-.22,11.16,11.16,0,0,0,.83-1.56m-13.24,5.84c.67-4,3-7.65,8.08-7.65a8.09,8.09,0,0,1,3.57.78c-.54,1.52-3,6.58-11.65,6.86m-.19,1.88c5.59-.13,9-2.11,11-4.17.89,3.2,4.06,4.86,5.5,5.45-.35,5.49-5.1,9.56-8.25,9.56s-8.31-4.38-8.31-10.19c0-.22,0-.44,0-.66m5.8,12.17a7,7,0,0,0,2.48.55,7.19,7.19,0,0,0,2.71-.64,6.23,6.23,0,0,0,1.68,4,6.83,6.83,0,0,1-3.65,1.18,9.75,9.75,0,0,1-5.57-1.19,5.89,5.89,0,0,0,2.36-3.94m-4.19,4.92a10.56,10.56,0,0,0,6.63,2.11q.45,0,.9,0a8,8,0,0,0,5.12-2,11.66,11.66,0,0,0,4.8.86,6.82,6.82,0,0,1,6.56,3.62h-34.8c1-2.47,2.4-3.68,5.75-3.68a13.46,13.46,0,0,0,5.05-.9m34.52,4.57h-8.4c-1.84-3.77-4.56-5.5-8.68-5.5-4.52,0-6.29-1.41-6.29-5h0a13.06,13.06,0,0,0,5.7-10.46s0-.05,0-.08h0c0-7.27-4-12-10.18-12s-10.19,4.73-10.19,12.06a13,13,0,0,0,5.93,10.6c-.12,4.48-5.72,4.85-7.45,4.85-4.62,0-6.52,2.1-7.75,5.55h-8.25v-35.36h55.57Z"/><path class="cls-3" d="M1695.84,1216.31H1574.59v60.62h121.25Zm-118.72,2.53h116.2v31.22l-7.63-5.13a4.2,4.2,0,0,0-7.15-4.15l-6.69-3.29a4.21,4.21,0,1,0-8.32-.95,4.17,4.17,0,0,0,.7,2.33l-8.91,10.37a4.14,4.14,0,0,0-1.87-.46,4.19,4.19,0,0,0-3.12,1.4l-7.15-3.78a4.18,4.18,0,0,0,.13-1,4.21,4.21,0,0,0-8.4-.38l-5.93.94a4.22,4.22,0,0,0-3.88-2.55,4.18,4.18,0,0,0-3.14,1.43l-7.14-3.7a4.5,4.5,0,0,0,0-.47,4.22,4.22,0,1,0-7.71,2.36l-8.74,11.76a4.17,4.17,0,0,0-4.69,1l-7.17-3.92a4.21,4.21,0,1,0-8.18-1.38,4.15,4.15,0,0,0,.25,1.36l-1.51.86Zm104.61,22.32a2.34,2.34,0,1,1-2.34,2.35,2.34,2.34,0,0,1,2.34-2.35m-16.32-4.62a2.34,2.34,0,1,1,2.34,2.34,2.34,2.34,0,0,1-2.34-2.34m-12,14.12a2.34,2.34,0,1,1-2.35,2.35,2.35,2.35,0,0,1,2.35-2.35m-14.35-2.91a2.34,2.34,0,1,1,2.34-2.34,2.34,2.34,0,0,1-2.34,2.34m-14-2.46a2.34,2.34,0,1,1-2.34,2.34,2.34,2.34,0,0,1,2.34-2.34m-16.8-4.61a2.34,2.34,0,1,1,2.34,2.34,2.34,2.34,0,0,1-2.34-2.34m-11.49,15.68a2.34,2.34,0,1,1-2.34,2.34,2.34,2.34,0,0,1,2.34-2.34m-16.56-5.82a2.34,2.34,0,1,1,2.34,2.34,2.35,2.35,0,0,1-2.34-2.34m-3.14,23.87v-19.18l2.66-1.58a4.15,4.15,0,0,0,5.65,0l7.32,4a4.08,4.08,0,0,0-.15,1,4.22,4.22,0,1,0,7.47-2.65l8.64-11.64a4.16,4.16,0,0,0,1.94.49,4.21,4.21,0,0,0,3.45-1.8l6.91,3.58a4.17,4.17,0,0,0-.12,1,4.21,4.21,0,0,0,8.4.38l5.93-.95a4.2,4.2,0,0,0,7,1.15l7.15,3.78a4.21,4.21,0,1,0,7.53-1.43l8.88-10.33a4.16,4.16,0,0,0,2,.52,4.2,4.2,0,0,0,3.15-1.44l6.71,3.3a4.33,4.33,0,0,0-.1.89,4.22,4.22,0,0,0,4.22,4.22,4.17,4.17,0,0,0,2.8-1.09l8.79,5.91v21.86Z"/><rect class="cls-3" x="1574.59" y="1164.53" width="121.25" height="2.53"/><rect class="cls-3" x="1574.59" y="1174.63" width="121.25" height="2.53"/><rect class="cls-3" x="1574.59" y="1184.74" width="121.25" height="2.53"/><rect class="cls-3" x="1574.59" y="1194.84" width="50.52" height="2.53"/><rect class="cls-3" x="1645.32" y="1114.01" width="50.52" height="2.53"/><rect class="cls-3" x="1645.32" y="1124.11" width="40.42" height="2.53"/><rect class="cls-2" x="934.86" y="1077.69" width="155.65" height="215.23"/><path class="cls-3" d="M1032.89,1196.68V1126H952.06v70.73Zm-2.53-17.38-14.63-13.11a3.34,3.34,0,0,0-4.52-.18l-20.87,19.21,7.75-11.61-16.84-18.28a3.34,3.34,0,0,0-5,.08l-21.7,25.06v-52h75.78Z"/><path class="cls-3" d="M952.06,1277.51h80.83V1247.2H952.06Zm78.31-2.53H954.58v-25.26h75.78Z"/><path class="cls-3" d="M1043,1277.51h30.31V1247.2H1043Zm2.53-27.79h25.26V1275h-25.26Z"/><path class="cls-3" d="M1010.92,1136.06a8.35,8.35,0,1,1-8.35,8.35,8.35,8.35,0,0,1,8.35-8.35"/><rect class="cls-3" x="952.06" y="1093.11" width="60.63" height="5.05"/><rect class="cls-3" x="952.06" y="1104.48" width="90.94" height="2.53"/><rect class="cls-3" x="952.06" y="1214.36" width="60.63" height="5.05"/><rect class="cls-3" x="952.06" y="1235.83" width="121.25" height="2.53"/><rect class="cls-3" x="952.06" y="1225.73" width="121.25" height="2.53"/><rect class="cls-3" x="1042.99" y="1133.53" width="30.31" height="5.05"/><rect class="cls-3" x="1042.99" y="1155" width="30.31" height="2.53"/><rect class="cls-3" x="1042.99" y="1165.1" width="30.31" height="2.53"/><rect class="cls-3" x="1042.99" y="1175.21" width="30.31" height="2.53"/><rect class="cls-3" x="1042.99" y="1185.31" width="30.31" height="2.53"/><rect class="cls-2" x="779.21" y="1077.69" width="155.65" height="215.23"/><rect class="cls-3" x="797.05" y="1101.95" width="60.62" height="5.05"/><rect class="cls-3" x="898.09" y="1101.95" width="20.21" height="5.05"/><rect class="cls-3" x="797.05" y="1113.32" width="80.83" height="2.53"/><rect class="cls-3" x="797.05" y="1133.53" width="60.62" height="2.53"/><rect class="cls-3" x="797.05" y="1143.63" width="60.62" height="2.53"/><rect class="cls-3" x="797.05" y="1244.67" width="121.25" height="2.53"/><rect class="cls-3" x="797.05" y="1254.78" width="121.25" height="2.53"/><rect class="cls-3" x="797.05" y="1264.88" width="60.62" height="2.53"/><rect class="cls-3" x="797.05" y="1153.74" width="40.42" height="2.53"/><rect class="cls-3" x="797.05" y="1184.05" width="40.42" height="2.53"/><rect class="cls-3" x="797.05" y="1163.84" width="50.52" height="2.53"/><rect class="cls-3" x="797.05" y="1173.95" width="50.52" height="2.53"/><path class="cls-3" d="M867.78,1195.42h48v-58.1h-48Zm2.4-55.68h43.19V1193H870.18Z"/><path class="cls-3" d="M797.05,1225.73H918.3v-20.21H797.05Zm118.72-2.52H799.58V1208h116.2Z"/><rect class="cls-2" x="156.61" y="1077.69" width="155.65" height="215.23"/><rect class="cls-3" x="163.7" y="1085.53" width="60.62" height="5.05"/><rect class="cls-3" x="284.95" y="1120.9" width="20.21" height="5.05"/><rect class="cls-3" x="284.95" y="1142.37" width="20.21" height="2.53"/><rect class="cls-3" x="284.95" y="1152.47" width="20.21" height="2.53"/><rect class="cls-3" x="284.95" y="1162.58" width="20.21" height="2.53"/><rect class="cls-3" x="284.95" y="1172.68" width="20.21" height="2.53"/><rect class="cls-3" x="284.95" y="1192.89" width="20.21" height="2.53"/><rect class="cls-3" x="284.95" y="1182.79" width="20.21" height="2.53"/><rect class="cls-3" x="163.7" y="1120.9" width="30.31" height="5.05"/><rect class="cls-3" x="163.7" y="1142.37" width="30.31" height="2.53"/><rect class="cls-3" x="163.7" y="1223.2" width="60.62" height="2.53"/><rect class="cls-3" x="163.7" y="1233.3" width="30.31" height="2.53"/><rect class="cls-3" x="163.7" y="1152.47" width="30.31" height="2.53"/><rect class="cls-3" x="163.7" y="1162.58" width="30.31" height="2.53"/><rect class="cls-3" x="163.7" y="1172.68" width="30.31" height="2.53"/><rect class="cls-3" x="163.7" y="1182.79" width="30.31" height="2.53"/><rect class="cls-3" x="163.7" y="1192.89" width="30.31" height="2.53"/><rect class="cls-3" x="214.22" y="1120.9" width="50.52" height="5.05"/><rect class="cls-3" x="214.22" y="1142.37" width="30.31" height="2.53"/><rect class="cls-3" x="214.22" y="1152.47" width="40.42" height="2.53"/><rect class="cls-3" x="214.22" y="1162.58" width="50.52" height="2.53"/><rect class="cls-3" x="214.22" y="1182.79" width="50.52" height="2.53"/><rect class="cls-3" x="214.22" y="1192.89" width="40.42" height="2.53"/><rect class="cls-3" x="214.22" y="1172.68" width="30.31" height="2.53"/><path class="cls-3" d="M276.84,1240.29a1.29,1.29,0,0,0-1.53.34L258,1261.52l-17.19-10.61a1.3,1.3,0,0,0-1-.16l-17.19,4-17.84-9.89a1.28,1.28,0,0,0-1.65.35l-16.81,22.4-17-9.64a1.29,1.29,0,0,0-1.29,0l-11.09,6.58v25.62h1v-23.28l10.74-6.37,17.32,9.84a1.28,1.28,0,0,0,1.66-.34l16.82-22.41,17.29,9.59a1.25,1.25,0,0,0,.91.13l17.16-4,17.69,10.92a1.28,1.28,0,0,0,1.66-.27l17.44-21,16.58,7.71,17,11.83v-3.09l-15.7-10.92Z"/><path class="cls-3" d="M158.65,1104.48h44.21V1213.1H158.65v2.53H310.21v-2.53h-34.1V1104.48h34.1V1102H158.65Zm46.73,0h68.2V1213.1h-68.2Z"/></g></svg>