<svg xmlns="http://www.w3.org/2000/svg" viewBox="0 0 1869.73 1293.75"><defs><style>.cls-1,.cls-4{fill:#fff;stroke:#0e213c;stroke-linejoin:round;}.cls-1{stroke-width:2px;}.cls-2{fill:#97cc4c;}.cls-3,.cls-5{fill:none;}.cls-4{stroke-width:3px;}.cls-5{stroke:#97cc4c;stroke-miterlimit:10;stroke-width:4px;}</style></defs><title>anim3</title><g id="anim3"><rect class="cls-1" x="0.96" y="1.08" width="155.65" height="215.23"/><path class="cls-2" d="M18.16,80.1H139.41a1.26,1.26,0,0,0,1.26-1.26V48.53a1.26,1.26,0,0,0-1.26-1.26H18.16a1.26,1.26,0,0,0-1.26,1.26V78.84a1.26,1.26,0,0,0,1.26,1.26m1.26-30.31H138.14V77.58H19.43Z"/><rect class="cls-2" x="48.47" y="57.37" width="50.52" height="2.53"/><rect class="cls-2" x="48.47" y="67.47" width="70.73" height="2.53"/><rect class="cls-2" x="18.16" y="35.9" width="40.42" height="5.05"/><path class="cls-2" d="M18.16,140.73H139.41a1.26,1.26,0,0,0,1.26-1.26V99a1.26,1.26,0,0,0-1.26-1.26H18.16A1.26,1.26,0,0,0,16.9,99v40.42a1.26,1.26,0,0,0,1.26,1.26m1.26-40.41H138.14V138.2H19.43Z"/><rect class="cls-2" x="48.47" y="107.89" width="80.83" height="2.53"/><rect class="cls-2" x="48.47" y="117.99" width="70.73" height="2.53"/><rect class="cls-2" x="48.47" y="128.1" width="70.73" height="2.53"/><rect class="cls-2" x="18.16" y="86.42" width="40.42" height="5.05"/><rect class="cls-2" x="18.16" y="16.95" width="50.52" height="2.53"/><rect class="cls-2" x="98.99" y="16.95" width="40.42" height="2.53"/><rect class="cls-2" x="18.16" y="158.41" width="121.25" height="2.53"/><rect class="cls-2" x="18.16" y="168.51" width="121.25" height="2.53"/><rect class="cls-2" x="18.16" y="178.62" width="101.04" height="2.53"/><rect class="cls-2" x="18.16" y="188.72" width="121.25" height="2.53"/><rect class="cls-2" x="18.16" y="198.82" width="121.25" height="2.53"/><rect class="cls-2" x="28.27" y="57.37" width="10.1" height="2.53"/><rect class="cls-2" x="28.27" y="107.89" width="10.1" height="2.53"/><rect class="cls-2" x="28.27" y="117.99" width="10.1" height="2.53"/><rect class="cls-2" x="28.27" y="128.1" width="10.1" height="2.53"/><rect class="cls-2" x="28.27" y="67.47" width="10.1" height="2.53"/><rect class="cls-1" x="1713.04" y="1.08" width="155.65" height="215.23"/><rect class="cls-2" x="1730.89" y="25.34" width="60.62" height="5.05"/><rect class="cls-2" x="1831.93" y="25.34" width="20.21" height="5.05"/><rect class="cls-2" x="1730.89" y="36.71" width="80.83" height="2.53"/><rect class="cls-2" x="1730.89" y="56.92" width="60.62" height="2.53"/><rect class="cls-2" x="1730.89" y="67.02" width="60.62" height="2.53"/><rect class="cls-2" x="1730.89" y="168.06" width="121.25" height="2.53"/><rect class="cls-2" x="1730.89" y="178.17" width="121.25" height="2.53"/><rect class="cls-2" x="1730.89" y="188.27" width="60.62" height="2.53"/><rect class="cls-2" x="1730.89" y="77.13" width="40.42" height="2.53"/><rect class="cls-2" x="1730.89" y="107.44" width="40.42" height="2.53"/><rect class="cls-2" x="1730.89" y="87.23" width="50.52" height="2.53"/><rect class="cls-2" x="1730.89" y="97.33" width="50.52" height="2.53"/><path class="cls-2" d="M1801.61,118.8h48V60.71h-48Zm2.4-55.68h43.19v53.26H1804Z"/><path class="cls-2" d="M1730.89,149.12h121.25V128.91H1730.89Zm118.72-2.52h-116.2V131.44h116.2Z"/><rect class="cls-1" x="312.26" y="216.32" width="155.65" height="215.23"/><path class="cls-2" d="M340.35,344.48a10.08,10.08,0,0,0,9.07-5.72l23.82,4.76c0,.32,0,.63,0,1A17.63,17.63,0,0,0,378.34,357L362.8,377.69a7.48,7.48,0,0,0-2.24-.38,7.58,7.58,0,1,0,6.31,3.38L382.38,360a17.63,17.63,0,0,0,17.43-.29L423.22,389a10.1,10.1,0,1,0,3.94-3.17l-23.39-29.24A17.49,17.49,0,0,0,408,340.33l25.23-10.09a10.07,10.07,0,1,0-2-6,9.92,9.92,0,0,0,.13,1.27l-25.25,10.1a17.72,17.72,0,0,0-9.93-8l5.63-33.76a10,10,0,1,0-5-.79l-5.62,33.74-.38,0a17.62,17.62,0,0,0-5.56.91l-9.19-18.39a7.57,7.57,0,1,0-5.45,2.33,7.65,7.65,0,0,0,.92-.09L380.78,330a17.69,17.69,0,0,0-6.57,8.61l-23.83-4.76a10.08,10.08,0,1,0-10,10.67"/><rect class="cls-2" x="330.24" y="230.81" width="60.62" height="5.05"/><rect class="cls-2" x="330.24" y="242.18" width="40.42" height="2.53"/><rect class="cls-1" x="1713.07" y="216.05" width="155.65" height="215.23"/><path class="cls-2" d="M1811.11,335V264.31h-80.83V335Zm-2.53-17.38-14.63-13.11a3.34,3.34,0,0,0-4.52-.18l-20.87,19.21,7.75-11.61-16.84-18.28a3.34,3.34,0,0,0-5,.08l-21.7,25.06v-52h75.78Z"/><path class="cls-2" d="M1730.28,415.86h80.83V385.55h-80.83Zm78.31-2.53H1732.8V388.08h75.78Z"/><path class="cls-2" d="M1821.21,415.86h30.31V385.55h-30.31Zm2.53-27.79H1849v25.26h-25.26Z"/><path class="cls-2" d="M1789.14,274.41a8.35,8.35,0,1,1-8.35,8.35,8.35,8.35,0,0,1,8.35-8.35"/><rect class="cls-2" x="1730.27" y="231.47" width="60.63" height="5.05"/><rect class="cls-2" x="1730.27" y="242.83" width="90.94" height="2.53"/><rect class="cls-2" x="1730.27" y="352.72" width="60.63" height="5.05"/><rect class="cls-2" x="1730.27" y="374.19" width="121.25" height="2.53"/><rect class="cls-2" x="1730.27" y="364.08" width="121.25" height="2.53"/><rect class="cls-2" x="1821.21" y="271.88" width="30.31" height="5.05"/><rect class="cls-2" x="1821.21" y="293.35" width="30.31" height="2.53"/><rect class="cls-2" x="1821.21" y="303.46" width="30.31" height="2.53"/><rect class="cls-2" x="1821.21" y="313.56" width="30.31" height="2.53"/><rect class="cls-2" x="1821.21" y="323.67" width="30.31" height="2.53"/><rect class="cls-1" x="1401.78" y="431.28" width="155.65" height="215.23"/><path class="cls-2" d="M1499.81,550.27V479.54H1419v70.73Zm-2.53-17.38-14.63-13.11a3.34,3.34,0,0,0-4.52-.18l-20.87,19.21L1465,527.2l-16.84-18.28a3.34,3.34,0,0,0-5,.08l-21.7,25.06v-52h75.78Z"/><path class="cls-2" d="M1419,631.1h80.83V600.79H1419Zm78.31-2.53H1421.5V603.31h75.78Z"/><path class="cls-2" d="M1509.91,631.1h30.31V600.79h-30.31Zm2.53-27.79h25.26v25.26h-25.26Z"/><path class="cls-2" d="M1477.84,489.64a8.35,8.35,0,1,1-8.35,8.35,8.35,8.35,0,0,1,8.35-8.35"/><rect class="cls-2" x="1418.98" y="446.7" width="60.63" height="5.05"/><rect class="cls-2" x="1418.98" y="458.07" width="90.94" height="2.53"/><rect class="cls-2" x="1418.98" y="567.95" width="60.63" height="5.05"/><rect class="cls-2" x="1418.98" y="589.42" width="121.25" height="2.53"/><rect class="cls-2" x="1418.98" y="579.32" width="121.25" height="2.53"/><rect class="cls-2" x="1509.91" y="487.12" width="30.31" height="5.05"/><rect class="cls-2" x="1509.91" y="508.59" width="30.31" height="2.53"/><rect class="cls-2" x="1509.91" y="518.69" width="30.31" height="2.53"/><rect class="cls-2" x="1509.91" y="528.8" width="30.31" height="2.53"/><rect class="cls-2" x="1509.91" y="538.9" width="30.31" height="2.53"/><rect class="cls-1" x="1246.09" y="216.05" width="155.65" height="215.23"/><rect class="cls-2" x="1263.94" y="240.31" width="60.62" height="5.05"/><rect class="cls-2" x="1364.98" y="240.31" width="20.21" height="5.05"/><rect class="cls-2" x="1263.94" y="251.68" width="80.83" height="2.53"/><rect class="cls-2" x="1263.94" y="271.89" width="60.62" height="2.53"/><rect class="cls-2" x="1263.94" y="281.99" width="60.62" height="2.53"/><rect class="cls-2" x="1263.94" y="383.03" width="121.25" height="2.53"/><rect class="cls-2" x="1263.94" y="393.13" width="121.25" height="2.53"/><rect class="cls-2" x="1263.94" y="403.24" width="60.62" height="2.53"/><rect class="cls-2" x="1263.94" y="292.09" width="40.42" height="2.53"/><rect class="cls-2" x="1263.94" y="322.4" width="40.42" height="2.53"/><rect class="cls-2" x="1263.94" y="302.2" width="50.52" height="2.53"/><rect class="cls-2" x="1263.94" y="312.3" width="50.52" height="2.53"/><path class="cls-2" d="M1334.66,333.77h48v-58.1h-48Zm2.4-55.68h43.19v53.26h-43.19Z"/><path class="cls-2" d="M1263.94,364.08h121.25V343.87H1263.94Zm118.72-2.52h-116.2V346.4h116.2Z"/><rect class="cls-1" x="156.61" y="216.32" width="155.65" height="215.23"/><polygon class="cls-2" points="173.9 333.04 204.16 332.95 204.03 335.47 173.76 335.56 173.9 333.04"/><rect class="cls-2" x="173.81" y="384.35" width="30.31" height="2.53"/><rect class="cls-2" x="173.81" y="404.56" width="30.31" height="2.53"/><rect class="cls-2" x="173.81" y="231.53" width="90.94" height="5.05"/><rect class="cls-2" x="173.81" y="253" width="50.52" height="2.53"/><rect class="cls-2" x="173.81" y="263.1" width="50.52" height="2.53"/><rect class="cls-2" x="173.81" y="273.21" width="50.52" height="2.53"/><rect class="cls-2" x="173.81" y="283.31" width="50.52" height="2.53"/><rect class="cls-2" x="173.81" y="293.42" width="50.52" height="2.53"/><rect class="cls-2" x="173.81" y="303.52" width="50.52" height="2.53"/><rect class="cls-2" x="173.81" y="313.62" width="50.52" height="2.52"/><rect class="cls-2" x="173.81" y="323.73" width="50.52" height="2.52"/><rect class="cls-2" x="173.81" y="354.04" width="50.52" height="2.53"/><rect class="cls-2" x="173.81" y="364.14" width="50.52" height="2.53"/><rect class="cls-2" x="173.81" y="374.25" width="50.52" height="2.53"/><rect class="cls-2" x="173.81" y="394.46" width="50.52" height="2.53"/><rect class="cls-2" x="244.54" y="253" width="50.52" height="2.53"/><rect class="cls-2" x="244.54" y="263.1" width="50.52" height="2.53"/><rect class="cls-2" x="244.54" y="273.21" width="50.52" height="2.53"/><rect class="cls-2" x="244.54" y="283.31" width="50.52" height="2.53"/><rect class="cls-2" x="244.54" y="333.83" width="50.52" height="2.52"/><rect class="cls-2" x="244.54" y="312.36" width="50.52" height="5.05"/><rect class="cls-2" x="244.54" y="343.94" width="50.52" height="2.53"/><rect class="cls-2" x="244.54" y="354.04" width="50.52" height="2.53"/><rect class="cls-2" x="244.54" y="364.14" width="50.52" height="2.53"/><rect class="cls-2" x="244.54" y="374.25" width="20.21" height="2.53"/><rect class="cls-2" x="244.54" y="394.46" width="50.52" height="2.53"/><rect class="cls-2" x="244.54" y="404.56" width="50.52" height="2.53"/><rect class="cls-2" x="244.54" y="414.66" width="20.21" height="2.53"/><rect class="cls-1" x="623.67" y="216.3" width="155.65" height="215.23"/><rect class="cls-2" x="641.51" y="240.56" width="60.62" height="5.05"/><rect class="cls-2" x="742.56" y="240.56" width="20.21" height="5.05"/><rect class="cls-2" x="641.51" y="251.93" width="80.83" height="2.53"/><rect class="cls-2" x="641.51" y="272.14" width="60.62" height="2.53"/><rect class="cls-2" x="641.51" y="282.24" width="60.62" height="2.53"/><rect class="cls-2" x="641.51" y="383.28" width="121.25" height="2.53"/><rect class="cls-2" x="641.51" y="393.38" width="121.25" height="2.53"/><rect class="cls-2" x="641.51" y="403.49" width="60.62" height="2.53"/><rect class="cls-2" x="641.51" y="292.34" width="40.42" height="2.53"/><rect class="cls-2" x="641.51" y="322.65" width="40.42" height="2.53"/><rect class="cls-2" x="641.51" y="302.45" width="50.52" height="2.53"/><rect class="cls-2" x="641.51" y="312.55" width="50.52" height="2.53"/><path class="cls-2" d="M712.24,334h48v-58.1h-48Zm2.4-55.68h43.19V331.6H714.64Z"/><path class="cls-2" d="M641.51,364.33H762.76V344.12H641.51Zm118.72-2.52H644V346.65h116.2Z"/><rect class="cls-3" width="1869.73" height="1292.69"/><rect class="cls-4" x="467.43" y="431.33" width="155.65" height="215.23"/><path d="M482.58,518.22h-3.74v-2.81H490v2.81h-3.74v14.11c0,4.16,1.26,8.28,7.35,8.28s7.48-3.95,7.48-7.94V518.22h-3.74v-2.81h10.92v2.81H504.5v14.45c0,6.47-3.23,11.09-11,11.09-7.56,0-10.92-4.41-10.92-11.43Z"/><path d="M510.63,540.48h3v-13.9h-3.36v-2.69h6.6v4.24a7.37,7.37,0,0,1,6.93-4.83c3.28,0,5.84,1.81,5.84,5.92v11.26h2.94v2.69h-8.95v-2.69h2.65V530.19c0-2.9-1-4-3-4-4.33,0-5.88,4.62-6.26,6.26v8h2.65v2.69h-9Z"/><path d="M534.78,540.48h3V515.7H534.4V513h6.72v27.47h3v2.69h-9.37Z"/><path d="M547.21,533.22c0-5.67,2.86-9.91,9-9.91,5.92,0,8.91,3.65,8.91,9.91,0,6-2.65,10.54-8.91,10.54S547.21,539.64,547.21,533.22Zm14.28.42c0-4.87-1.85-7.56-5.29-7.56s-5.38,2.77-5.38,7.56,1.89,7.35,5.38,7.35S561.49,538.09,561.49,533.64Z"/><path d="M584.93,538.26c-1,3.36-3.28,5.5-7.65,5.5-5.42,0-8.36-3.82-8.36-10.29,0-7.65,4.07-10.17,8.61-10.17,4.24,0,7.31,1.85,7.31,5.38,0,.21,0,.42,0,.67l-3.36.59v-.5c0-2.65-1.64-3.36-3.91-3.36-3.86,0-5,3.65-5,7.48,0,5.38,2.1,7.44,4.79,7.44a4.38,4.38,0,0,0,4.62-3.32Z"/><path d="M587.66,540.48h3V515.7h-3.36V513H594v18.36h1l4.79-4.79h-2.06v-2.69h9v2.69h-3l-5.92,5.92,6.55,8h2.81v2.69h-5l-7.31-9.12H594v6.43h2.81v2.69h-9.16Z"/><line class="cls-5" x1="486.86" y1="568.4" x2="603.88" y2="568.4"/><rect class="cls-4" x="905.11" y="460.46" width="215.23" height="155.65" transform="translate(470.87 1549.1) rotate(-89.8)"/><path d="M949.58,514.82h-3.36v-2.69l6.72,0,0,13.74a7,7,0,0,1,5.89-3.42c6,0,8,4.86,8,9.61,0,6-2.64,10.87-8.44,10.85a6,6,0,0,1-5.91-3.59l-.18,3h-2.82Zm13.63,17.48c0-4.79-1.78-7.06-4.72-7.07-3.53,0-5.56,3.26-5.57,7.58s2.07,7.32,5.39,7.33C961.84,540.15,963.19,536.75,963.21,532.3Z"/><path d="M987.3,537.51c-1,3.44-3.51,5.49-7.75,5.48-5.71,0-9-3.22-9-10.16,0-5.17,2.22-10.33,8.94-10.3,5.08,0,7.8,2.8,7.78,8.68v2.1l-13.11,0c0,3.57,1,6.93,5.44,7a4.75,4.75,0,0,0,4.72-3.3Zm-3.46-6.9v-.76c0-2.56-1.37-4.54-4.4-4.55-2.69,0-4.58,1.62-5.1,5.27Z"/><path d="M990.4,539.75h3l.09-24.78H990.1v-2.69l6.72,0-.05,14.83a7.15,7.15,0,0,1,6.82-4.51c3.28,0,5.83,1.83,5.82,5.94l0,11.26h2.94v2.69l-8.95,0v-2.69H1006l0-10.29c0-2.9-1-4-3-4-4.33,0-5.9,4.94-6.28,6.66l0,7.6h2.65v2.69l-9,0Z"/><path d="M1015.13,539.83h3l0-13.9h-3.36v-2.69l6.72,0-.06,16.59h3v2.69l-9.33,0Zm4.33-25.65a2.37,2.37,0,0,1,2.39,2.4,2.34,2.34,0,0,1-2.4,2.39,2.32,2.32,0,0,1-2.39-2.4A2.34,2.34,0,0,1,1019.47,514.18Z"/><path d="M1027.48,539.88h3l0-13.9h-3.36v-2.69l6.59,0v4.24a7.37,7.37,0,0,1,6.95-4.81c3.28,0,5.83,1.83,5.82,5.94l0,11.26h2.94v2.69l-8.95,0v-2.69h2.65l0-10.29c0-2.9-1-4-3-4-4.33,0-5.9,4.6-6.28,6.24l0,8h2.65v2.69l-9,0Z"/><path d="M1066.67,539.22a6.93,6.93,0,0,1-6.65,4.05c-6,0-7.71-5.28-7.69-9.94,0-6.13,2.85-10.53,8.48-10.51a6.92,6.92,0,0,1,5.66,2.62l0-10.21h-3.36v-2.69l6.72,0-.1,27.47h3v2.69l-5.84,0Zm-.23-6.68c0-2.65-.69-6.93-5.35-7-3.61,0-5.13,2.67-5.15,7.54,0,3,.56,7.35,4.81,7.37C1064.61,540.51,1066.43,536.78,1066.44,532.54Z"/><line class="cls-5" x1="954.22" y1="567.53" x2="1071.24" y2="567.94"/><rect class="cls-1" x="623.56" y="647.21" width="155.65" height="215.23"/><polygon class="cls-2" points="640.85 763.93 671.12 763.84 670.99 766.36 640.72 766.45 640.85 763.93"/><rect class="cls-2" x="640.76" y="815.24" width="30.31" height="2.53"/><rect class="cls-2" x="640.76" y="835.45" width="30.31" height="2.53"/><rect class="cls-2" x="640.76" y="662.42" width="90.94" height="5.05"/><rect class="cls-2" x="640.76" y="683.89" width="50.52" height="2.53"/><rect class="cls-2" x="640.76" y="693.99" width="50.52" height="2.53"/><rect class="cls-2" x="640.76" y="704.1" width="50.52" height="2.53"/><rect class="cls-2" x="640.76" y="714.2" width="50.52" height="2.53"/><rect class="cls-2" x="640.76" y="724.31" width="50.52" height="2.53"/><rect class="cls-2" x="640.76" y="734.41" width="50.52" height="2.53"/><rect class="cls-2" x="640.76" y="744.51" width="50.52" height="2.52"/><rect class="cls-2" x="640.76" y="754.62" width="50.52" height="2.52"/><rect class="cls-2" x="640.76" y="784.93" width="50.52" height="2.53"/><rect class="cls-2" x="640.76" y="795.03" width="50.52" height="2.53"/><rect class="cls-2" x="640.76" y="805.14" width="50.52" height="2.53"/><rect class="cls-2" x="640.76" y="825.35" width="50.52" height="2.53"/><rect class="cls-2" x="711.49" y="683.89" width="50.52" height="2.53"/><rect class="cls-2" x="711.49" y="693.99" width="50.52" height="2.53"/><rect class="cls-2" x="711.49" y="704.1" width="50.52" height="2.53"/><rect class="cls-2" x="711.49" y="714.2" width="50.52" height="2.53"/><rect class="cls-2" x="711.49" y="764.72" width="50.52" height="2.52"/><rect class="cls-2" x="711.49" y="743.25" width="50.52" height="5.05"/><rect class="cls-2" x="711.49" y="774.83" width="50.52" height="2.53"/><rect class="cls-2" x="711.49" y="784.93" width="50.52" height="2.53"/><rect class="cls-2" x="711.49" y="795.03" width="50.52" height="2.53"/><rect class="cls-2" x="711.49" y="805.14" width="20.21" height="2.53"/><rect class="cls-2" x="711.49" y="825.35" width="50.52" height="2.53"/><rect class="cls-2" x="711.49" y="835.45" width="50.52" height="2.53"/><rect class="cls-2" x="711.49" y="845.55" width="20.21" height="2.53"/><rect class="cls-1" x="1557.42" y="431.08" width="155.65" height="215.23"/><rect class="cls-2" x="1564.52" y="438.92" width="60.62" height="5.05"/><rect class="cls-2" x="1685.77" y="474.28" width="20.21" height="5.05"/><rect class="cls-2" x="1685.77" y="495.75" width="20.21" height="2.53"/><rect class="cls-2" x="1685.77" y="505.86" width="20.21" height="2.53"/><rect class="cls-2" x="1685.77" y="515.96" width="20.21" height="2.53"/><rect class="cls-2" x="1685.77" y="526.06" width="20.21" height="2.53"/><rect class="cls-2" x="1685.77" y="546.27" width="20.21" height="2.53"/><rect class="cls-2" x="1685.77" y="536.17" width="20.21" height="2.53"/><rect class="cls-2" x="1564.52" y="474.28" width="30.31" height="5.05"/><rect class="cls-2" x="1564.52" y="495.75" width="30.31" height="2.53"/><rect class="cls-2" x="1564.52" y="576.58" width="60.62" height="2.53"/><rect class="cls-2" x="1564.52" y="586.69" width="30.31" height="2.53"/><rect class="cls-2" x="1564.52" y="505.86" width="30.31" height="2.53"/><rect class="cls-2" x="1564.52" y="515.96" width="30.31" height="2.53"/><rect class="cls-2" x="1564.52" y="526.06" width="30.31" height="2.53"/><rect class="cls-2" x="1564.52" y="536.17" width="30.31" height="2.53"/><rect class="cls-2" x="1564.52" y="546.27" width="30.31" height="2.53"/><rect class="cls-2" x="1615.04" y="474.28" width="50.52" height="5.05"/><rect class="cls-2" x="1615.04" y="495.75" width="30.31" height="2.53"/><rect class="cls-2" x="1615.04" y="505.86" width="40.42" height="2.53"/><rect class="cls-2" x="1615.04" y="515.96" width="50.52" height="2.53"/><rect class="cls-2" x="1615.04" y="536.17" width="50.52" height="2.53"/><rect class="cls-2" x="1615.04" y="546.27" width="40.42" height="2.53"/><rect class="cls-2" x="1615.04" y="526.06" width="30.31" height="2.53"/><path class="cls-2" d="M1677.65,593.68a1.29,1.29,0,0,0-1.53.34l-17.35,20.89-17.19-10.61a1.3,1.3,0,0,0-1-.16l-17.19,4-17.84-9.89a1.28,1.28,0,0,0-1.65.35L1587.12,621l-17-9.64a1.29,1.29,0,0,0-1.29,0l-11.09,6.58v25.62h1V620.24l10.74-6.37,17.32,9.84a1.28,1.28,0,0,0,1.66-.34L1605.31,601l17.29,9.59a1.25,1.25,0,0,0,.91.13l17.16-4,17.69,10.92a1.28,1.28,0,0,0,1.66-.27l17.44-21,16.58,7.71,17,11.83v-3.09l-15.7-10.92Z"/><path class="cls-2" d="M1559.47,457.86h44.21V566.48h-44.21V569H1711v-2.53h-34.1V457.86H1711v-2.53H1559.47Zm46.73,0h68.2V566.48h-68.2Z"/></g></svg>