<svg id="anim1" xmlns="http://www.w3.org/2000/svg" viewBox="0 0 1869.73 1293.75"><defs><style>.cls-1{fill:#fff;stroke:#0e213c;stroke-linejoin:round;stroke-width:2px;}.cls-2{fill:#97cc4c;}.cls-3{fill:none;}</style></defs><title>anim1</title><rect class="cls-1" x="1401.74" y="1.08" width="155.65" height="215.23"/><polygon class="cls-2" points="1419.03 117.81 1449.3 117.72 1449.17 120.24 1418.9 120.33 1419.03 117.81"/><rect class="cls-2" x="1418.95" y="169.12" width="30.31" height="2.53"/><rect class="cls-2" x="1418.95" y="189.33" width="30.31" height="2.53"/><rect class="cls-2" x="1418.95" y="16.29" width="90.94" height="5.05"/><rect class="cls-2" x="1418.95" y="37.77" width="50.52" height="2.53"/><rect class="cls-2" x="1418.95" y="47.87" width="50.52" height="2.53"/><rect class="cls-2" x="1418.95" y="57.97" width="50.52" height="2.53"/><rect class="cls-2" x="1418.95" y="68.08" width="50.52" height="2.53"/><rect class="cls-2" x="1418.95" y="78.18" width="50.52" height="2.53"/><rect class="cls-2" x="1418.95" y="88.29" width="50.52" height="2.53"/><rect class="cls-2" x="1418.95" y="98.39" width="50.52" height="2.52"/><rect class="cls-2" x="1418.95" y="108.5" width="50.52" height="2.52"/><rect class="cls-2" x="1418.95" y="138.8" width="50.52" height="2.53"/><rect class="cls-2" x="1418.95" y="148.91" width="50.52" height="2.53"/><rect class="cls-2" x="1418.95" y="159.01" width="50.52" height="2.53"/><rect class="cls-2" x="1418.95" y="179.22" width="50.52" height="2.53"/><rect class="cls-2" x="1489.67" y="37.77" width="50.52" height="2.53"/><rect class="cls-2" x="1489.67" y="47.87" width="50.52" height="2.53"/><rect class="cls-2" x="1489.67" y="57.97" width="50.52" height="2.53"/><rect class="cls-2" x="1489.67" y="68.08" width="50.52" height="2.53"/><rect class="cls-2" x="1489.67" y="118.6" width="50.52" height="2.52"/><rect class="cls-2" x="1489.67" y="97.13" width="50.52" height="5.05"/><rect class="cls-2" x="1489.67" y="128.7" width="50.52" height="2.53"/><rect class="cls-2" x="1489.67" y="138.8" width="50.52" height="2.53"/><rect class="cls-2" x="1489.67" y="148.91" width="50.52" height="2.53"/><rect class="cls-2" x="1489.67" y="159.01" width="20.21" height="2.53"/><rect class="cls-2" x="1489.67" y="179.22" width="50.52" height="2.53"/><rect class="cls-2" x="1489.67" y="189.33" width="50.52" height="2.53"/><rect class="cls-2" x="1489.67" y="199.43" width="20.21" height="2.53"/><rect class="cls-2" x="1117.81" y="180.35" width="10.1" height="10.1"/><rect class="cls-1" x="1090.51" y="1.08" width="155.65" height="215.23"/><rect class="cls-2" x="1107.71" y="26.26" width="80.83" height="5.05"/><rect class="cls-2" x="1107.71" y="47.73" width="60.62" height="2.53"/><rect class="cls-2" x="1107.71" y="57.84" width="50.52" height="2.53"/><rect class="cls-2" x="1107.71" y="67.94" width="40.42" height="2.53"/><rect class="cls-2" x="1107.71" y="88.15" width="40.42" height="2.53"/><rect class="cls-2" x="1107.71" y="78.04" width="50.52" height="2.53"/><rect class="cls-2" x="1107.71" y="98.25" width="50.52" height="2.53"/><path class="cls-2" d="M1230.22,200.55V139.93h-2.53v59.36h-120v2.53H1229a1.26,1.26,0,0,0,1.26-1.26"/><rect class="cls-2" x="1198.64" y="189.19" width="20.21" height="2.53"/><rect class="cls-2" x="1208.75" y="179.08" width="10.1" height="2.53"/><rect class="cls-2" x="1208.75" y="168.98" width="10.1" height="2.53"/><rect class="cls-2" x="1198.64" y="158.87" width="20.21" height="2.53"/><path class="cls-2" d="M1175.73,75a1.27,1.27,0,0,0,.37.9,1.25,1.25,0,0,0,.89.37h24.71V101a1.28,1.28,0,0,0,.37.9,1.25,1.25,0,0,0,.89.37h0A27.18,27.18,0,1,0,1175.73,75m27.18-24.6a24.66,24.66,0,0,1,1.32,49.28V75a1.26,1.26,0,0,0-1.26-1.26h-24.67a24.7,24.7,0,0,1,24.62-23.34"/><path class="cls-2" d="M1168.33,83.7a25.92,25.92,0,0,0,25.92,25.92h.05v-26h-26s0,0,0,.05"/><rect class="cls-2" x="1132.97" y="170.24" width="10.1" height="20.21"/><rect class="cls-2" x="1178.43" y="160.14" width="10.1" height="30.31"/><rect class="cls-2" x="1163.28" y="180.35" width="10.1" height="10.1"/><rect class="cls-2" x="1148.12" y="150.03" width="10.1" height="40.42"/><rect class="cls-1" x="934.86" y="1.08" width="155.65" height="215.23"/><path class="cls-2" d="M1032.89,120.07V49.34H952.06v70.73Zm-2.53-17.38-14.63-13.11a3.34,3.34,0,0,0-4.52-.18l-20.87,19.21L998.1,97,981.26,78.72a3.34,3.34,0,0,0-5,.08l-21.7,25.06v-52h75.78Z"/><path class="cls-2" d="M952.06,200.9h80.83V170.59H952.06Zm78.31-2.53H954.58V173.11h75.78Z"/><path class="cls-2" d="M1043,200.9h30.31V170.59H1043Zm2.53-27.79h25.26v25.26h-25.26Z"/><path class="cls-2" d="M1010.92,59.44a8.35,8.35,0,1,1-8.35,8.35,8.35,8.35,0,0,1,8.35-8.35"/><rect class="cls-2" x="952.06" y="16.5" width="60.63" height="5.05"/><rect class="cls-2" x="952.06" y="27.87" width="90.94" height="2.53"/><rect class="cls-2" x="952.06" y="137.75" width="60.63" height="5.05"/><rect class="cls-2" x="952.06" y="159.22" width="121.25" height="2.53"/><rect class="cls-2" x="952.06" y="149.12" width="121.25" height="2.53"/><rect class="cls-2" x="1042.99" y="56.92" width="30.31" height="5.05"/><rect class="cls-2" x="1042.99" y="78.39" width="30.31" height="2.53"/><rect class="cls-2" x="1042.99" y="88.49" width="30.31" height="2.53"/><rect class="cls-2" x="1042.99" y="98.6" width="30.31" height="2.53"/><rect class="cls-2" x="1042.99" y="108.7" width="30.31" height="2.53"/><rect class="cls-1" x="779.21" y="1.08" width="155.65" height="215.23"/><rect class="cls-2" x="797.05" y="25.34" width="60.62" height="5.05"/><rect class="cls-2" x="898.09" y="25.34" width="20.21" height="5.05"/><rect class="cls-2" x="797.05" y="36.71" width="80.83" height="2.53"/><rect class="cls-2" x="797.05" y="56.92" width="60.62" height="2.53"/><rect class="cls-2" x="797.05" y="67.02" width="60.62" height="2.53"/><rect class="cls-2" x="797.05" y="168.06" width="121.25" height="2.53"/><rect class="cls-2" x="797.05" y="178.17" width="121.25" height="2.53"/><rect class="cls-2" x="797.05" y="188.27" width="60.62" height="2.53"/><rect class="cls-2" x="797.05" y="77.13" width="40.42" height="2.53"/><rect class="cls-2" x="797.05" y="107.44" width="40.42" height="2.53"/><rect class="cls-2" x="797.05" y="87.23" width="50.52" height="2.53"/><rect class="cls-2" x="797.05" y="97.33" width="50.52" height="2.53"/><path class="cls-2" d="M867.78,118.8h48V60.71h-48Zm2.4-55.68h43.19v53.26H870.18Z"/><path class="cls-2" d="M797.05,149.12H918.3V128.91H797.05Zm118.72-2.52H799.58V131.44h116.2Z"/><rect class="cls-1" x="156.61" y="1.08" width="155.65" height="215.23"/><rect class="cls-2" x="163.7" y="8.92" width="60.62" height="5.05"/><rect class="cls-2" x="284.95" y="44.29" width="20.21" height="5.05"/><rect class="cls-2" x="284.95" y="65.76" width="20.21" height="2.53"/><rect class="cls-2" x="284.95" y="75.86" width="20.21" height="2.53"/><rect class="cls-2" x="284.95" y="85.96" width="20.21" height="2.53"/><rect class="cls-2" x="284.95" y="96.07" width="20.21" height="2.53"/><rect class="cls-2" x="284.95" y="116.28" width="20.21" height="2.53"/><rect class="cls-2" x="284.95" y="106.17" width="20.21" height="2.53"/><rect class="cls-2" x="163.7" y="44.29" width="30.31" height="5.05"/><rect class="cls-2" x="163.7" y="65.76" width="30.31" height="2.53"/><rect class="cls-2" x="163.7" y="146.59" width="60.62" height="2.53"/><rect class="cls-2" x="163.7" y="156.69" width="30.31" height="2.53"/><rect class="cls-2" x="163.7" y="75.86" width="30.31" height="2.53"/><rect class="cls-2" x="163.7" y="85.96" width="30.31" height="2.53"/><rect class="cls-2" x="163.7" y="96.07" width="30.31" height="2.53"/><rect class="cls-2" x="163.7" y="106.17" width="30.31" height="2.53"/><rect class="cls-2" x="163.7" y="116.28" width="30.31" height="2.53"/><rect class="cls-2" x="214.22" y="44.29" width="50.52" height="5.05"/><rect class="cls-2" x="214.22" y="65.76" width="30.31" height="2.53"/><rect class="cls-2" x="214.22" y="75.86" width="40.42" height="2.53"/><rect class="cls-2" x="214.22" y="85.96" width="50.52" height="2.53"/><rect class="cls-2" x="214.22" y="106.17" width="50.52" height="2.53"/><rect class="cls-2" x="214.22" y="116.28" width="40.42" height="2.53"/><rect class="cls-2" x="214.22" y="96.07" width="30.31" height="2.53"/><path class="cls-2" d="M276.84,163.68a1.29,1.29,0,0,0-1.53.34L258,184.91,240.77,174.3a1.3,1.3,0,0,0-1-.16l-17.19,4-17.84-9.89a1.28,1.28,0,0,0-1.65.35L186.31,191l-17-9.64a1.29,1.29,0,0,0-1.29,0l-11.09,6.58v25.62h1V190.25l10.74-6.37L186,193.71a1.28,1.28,0,0,0,1.66-.34L204.5,171l17.29,9.59a1.25,1.25,0,0,0,.91.13l17.16-4,17.69,10.92a1.28,1.28,0,0,0,1.66-.27l17.44-21,16.58,7.71,17,11.83v-3.09l-15.7-10.92Z"/><path class="cls-2" d="M158.65,27.87h44.21V136.49H158.65V139H310.21v-2.53h-34.1V27.87h34.1V25.34H158.65Zm46.73,0h68.2V136.49h-68.2Z"/><rect class="cls-1" x="934.83" y="216.05" width="155.65" height="215.23"/><rect class="cls-2" x="941.92" y="223.89" width="60.62" height="5.05"/><rect class="cls-2" x="1063.17" y="259.25" width="20.21" height="5.05"/><rect class="cls-2" x="1063.17" y="280.72" width="20.21" height="2.53"/><rect class="cls-2" x="1063.17" y="290.83" width="20.21" height="2.53"/><rect class="cls-2" x="1063.17" y="300.93" width="20.21" height="2.53"/><rect class="cls-2" x="1063.17" y="311.04" width="20.21" height="2.53"/><rect class="cls-2" x="1063.17" y="331.24" width="20.21" height="2.53"/><rect class="cls-2" x="1063.17" y="321.14" width="20.21" height="2.53"/><rect class="cls-2" x="941.92" y="259.25" width="30.31" height="5.05"/><rect class="cls-2" x="941.92" y="280.72" width="30.31" height="2.53"/><rect class="cls-2" x="941.92" y="361.55" width="60.62" height="2.53"/><rect class="cls-2" x="941.92" y="371.66" width="30.31" height="2.53"/><rect class="cls-2" x="941.92" y="290.83" width="30.31" height="2.53"/><rect class="cls-2" x="941.92" y="300.93" width="30.31" height="2.53"/><rect class="cls-2" x="941.92" y="311.04" width="30.31" height="2.53"/><rect class="cls-2" x="941.92" y="321.14" width="30.31" height="2.53"/><rect class="cls-2" x="941.92" y="331.24" width="30.31" height="2.53"/><rect class="cls-2" x="992.44" y="259.25" width="50.52" height="5.05"/><rect class="cls-2" x="992.44" y="280.72" width="30.31" height="2.53"/><rect class="cls-2" x="992.44" y="290.83" width="40.42" height="2.53"/><rect class="cls-2" x="992.44" y="300.93" width="50.52" height="2.53"/><rect class="cls-2" x="992.44" y="321.14" width="50.52" height="2.53"/><rect class="cls-2" x="992.44" y="331.24" width="40.42" height="2.53"/><rect class="cls-2" x="992.44" y="311.04" width="30.31" height="2.53"/><path class="cls-2" d="M1055.05,378.65a1.29,1.29,0,0,0-1.53.34l-17.35,20.89L1019,389.26a1.3,1.3,0,0,0-1-.16l-17.19,4L983,383.18a1.28,1.28,0,0,0-1.65.35l-16.81,22.4-17-9.64a1.29,1.29,0,0,0-1.29,0l-11.09,6.58v25.62h1V405.21l10.74-6.37,17.32,9.84a1.28,1.28,0,0,0,1.66-.34l16.82-22.41,17.29,9.59a1.25,1.25,0,0,0,.91.13l17.16-4,17.69,10.92a1.28,1.28,0,0,0,1.66-.27l17.44-21,16.58,7.71,17,11.83v-3.09l-15.7-10.92Z"/><path class="cls-2" d="M936.87,242.83h44.21V351.45H936.87V354h151.56v-2.53h-34.1V242.83h34.1v-2.53H936.87Zm46.73,0h68.2V351.45H983.6Z"/><rect class="cls-1" x="1401.77" y="216.05" width="155.65" height="215.23"/><path class="cls-2" d="M1419,283.94h60.62V243.52H1419Zm35.4-31.91a10.29,10.29,0,0,1,3.07,6.92c-1.53-.77-3.86-2.38-3.86-5.15a.83.83,0,0,0,0-.22,11.16,11.16,0,0,0,.83-1.56m-13.24,5.84c.67-4,3-7.65,8.08-7.65a8.09,8.09,0,0,1,3.57.78c-.54,1.52-3,6.58-11.65,6.86m-.19,1.88c5.59-.13,9-2.11,11-4.17.89,3.2,4.06,4.86,5.5,5.45-.35,5.49-5.1,9.56-8.25,9.56s-8.31-4.38-8.31-10.19c0-.22,0-.44,0-.66m5.8,12.17a7,7,0,0,0,2.48.55,7.19,7.19,0,0,0,2.71-.64,6.23,6.23,0,0,0,1.68,4,6.83,6.83,0,0,1-3.65,1.18,9.75,9.75,0,0,1-5.57-1.19,5.89,5.89,0,0,0,2.36-3.94m-4.19,4.92a10.56,10.56,0,0,0,6.63,2.11q.45,0,.9,0a8,8,0,0,0,5.12-2,11.66,11.66,0,0,0,4.8.86,6.82,6.82,0,0,1,6.56,3.62h-34.8c1-2.47,2.4-3.68,5.75-3.68a13.46,13.46,0,0,0,5.05-.9m34.52,4.57h-8.4c-1.84-3.77-4.56-5.5-8.68-5.5-4.52,0-6.29-1.41-6.29-5h0a13.06,13.06,0,0,0,5.7-10.46s0-.05,0-.08h0c0-7.27-4-12-10.18-12S1439,253.08,1439,260.41A13,13,0,0,0,1445,271c-.12,4.48-5.72,4.85-7.45,4.85-4.62,0-6.52,2.1-7.75,5.55h-8.25V246h55.57Z"/><path class="cls-2" d="M1540.22,354.67H1419v60.62h121.25Zm-118.72,2.53h116.2v31.22l-7.63-5.13a4.2,4.2,0,0,0-7.15-4.15l-6.69-3.29a4.21,4.21,0,1,0-8.32-.95,4.17,4.17,0,0,0,.7,2.33l-8.91,10.37a4.14,4.14,0,0,0-1.87-.46,4.19,4.19,0,0,0-3.12,1.4l-7.15-3.78a4.18,4.18,0,0,0,.13-1,4.21,4.21,0,0,0-8.4-.38l-5.93.94a4.22,4.22,0,0,0-3.88-2.55,4.18,4.18,0,0,0-3.14,1.43l-7.14-3.7a4.5,4.5,0,0,0,0-.47,4.22,4.22,0,1,0-7.71,2.36l-8.74,11.76a4.17,4.17,0,0,0-4.69,1l-7.17-3.92a4.21,4.21,0,1,0-8.18-1.38,4.15,4.15,0,0,0,.25,1.36l-1.51.86Zm104.61,22.32a2.34,2.34,0,1,1-2.34,2.35,2.34,2.34,0,0,1,2.34-2.35m-16.32-4.62a2.34,2.34,0,1,1,2.34,2.34,2.34,2.34,0,0,1-2.34-2.34m-12,14.12a2.34,2.34,0,1,1-2.35,2.35,2.35,2.35,0,0,1,2.35-2.35m-14.35-2.91a2.34,2.34,0,1,1,2.34-2.34,2.34,2.34,0,0,1-2.34,2.34m-14-2.46a2.34,2.34,0,1,1-2.34,2.34,2.34,2.34,0,0,1,2.34-2.34M1452.7,379a2.34,2.34,0,1,1,2.34,2.34,2.34,2.34,0,0,1-2.34-2.34m-11.49,15.68a2.34,2.34,0,1,1-2.34,2.34,2.34,2.34,0,0,1,2.34-2.34m-16.56-5.82a2.34,2.34,0,1,1,2.34,2.34,2.35,2.35,0,0,1-2.34-2.34m-3.14,23.87V393.58l2.66-1.58a4.15,4.15,0,0,0,5.65,0l7.32,4a4.08,4.08,0,0,0-.15,1,4.22,4.22,0,1,0,7.47-2.65l8.64-11.64a4.16,4.16,0,0,0,1.94.49,4.21,4.21,0,0,0,3.45-1.8l6.91,3.58a4.17,4.17,0,0,0-.12,1,4.21,4.21,0,0,0,8.4.38l5.93-.95a4.2,4.2,0,0,0,7,1.15l7.15,3.78a4.21,4.21,0,1,0,7.53-1.43l8.88-10.33a4.16,4.16,0,0,0,2,.52,4.2,4.2,0,0,0,3.15-1.44L1522,381a4.33,4.33,0,0,0-.1.89,4.22,4.22,0,0,0,4.22,4.22,4.17,4.17,0,0,0,2.8-1.09l8.79,5.91v21.86Z"/><rect class="cls-2" x="1418.98" y="302.88" width="121.25" height="2.53"/><rect class="cls-2" x="1418.98" y="312.99" width="121.25" height="2.53"/><rect class="cls-2" x="1418.98" y="323.09" width="121.25" height="2.53"/><rect class="cls-2" x="1418.98" y="333.2" width="50.52" height="2.53"/><rect class="cls-2" x="1489.7" y="252.36" width="50.52" height="2.53"/><rect class="cls-2" x="1489.7" y="262.47" width="40.42" height="2.53"/><rect class="cls-1" x="467.91" y="1.08" width="155.65" height="215.23"/><polygon class="cls-2" points="485.2 117.81 515.46 117.72 515.33 120.24 485.06 120.33 485.2 117.81"/><rect class="cls-2" x="485.11" y="169.12" width="30.31" height="2.53"/><rect class="cls-2" x="485.11" y="189.33" width="30.31" height="2.53"/><rect class="cls-2" x="485.11" y="16.29" width="90.94" height="5.05"/><rect class="cls-2" x="485.11" y="37.77" width="50.52" height="2.53"/><rect class="cls-2" x="485.11" y="47.87" width="50.52" height="2.53"/><rect class="cls-2" x="485.11" y="57.97" width="50.52" height="2.53"/><rect class="cls-2" x="485.11" y="68.08" width="50.52" height="2.53"/><rect class="cls-2" x="485.11" y="78.18" width="50.52" height="2.53"/><rect class="cls-2" x="485.11" y="88.29" width="50.52" height="2.53"/><rect class="cls-2" x="485.11" y="98.39" width="50.52" height="2.52"/><rect class="cls-2" x="485.11" y="108.5" width="50.52" height="2.52"/><rect class="cls-2" x="485.11" y="138.8" width="50.52" height="2.53"/><rect class="cls-2" x="485.11" y="148.91" width="50.52" height="2.53"/><rect class="cls-2" x="485.11" y="159.01" width="50.52" height="2.53"/><rect class="cls-2" x="485.11" y="179.22" width="50.52" height="2.53"/><rect class="cls-2" x="555.84" y="37.77" width="50.52" height="2.53"/><rect class="cls-2" x="555.84" y="47.87" width="50.52" height="2.53"/><rect class="cls-2" x="555.84" y="57.97" width="50.52" height="2.53"/><rect class="cls-2" x="555.84" y="68.08" width="50.52" height="2.53"/><rect class="cls-2" x="555.84" y="118.6" width="50.52" height="2.52"/><rect class="cls-2" x="555.84" y="97.13" width="50.52" height="5.05"/><rect class="cls-2" x="555.84" y="128.7" width="50.52" height="2.53"/><rect class="cls-2" x="555.84" y="138.8" width="50.52" height="2.53"/><rect class="cls-2" x="555.84" y="148.91" width="50.52" height="2.53"/><rect class="cls-2" x="555.84" y="159.01" width="20.21" height="2.53"/><rect class="cls-2" x="555.84" y="179.22" width="50.52" height="2.53"/><rect class="cls-2" x="555.84" y="189.33" width="50.52" height="2.53"/><rect class="cls-2" x="555.84" y="199.43" width="20.21" height="2.53"/><rect class="cls-3" width="1869.73" height="1292.69"/></svg>