<svg xmlns="http://www.w3.org/2000/svg" viewBox="0 0 1869.73 1293.75"><defs><style>.cls-1,.cls-3{fill:#fff;stroke:#0e213c;stroke-linejoin:round;}.cls-1{stroke-width:2px;}.cls-2{fill:#97cc4c;}.cls-3{stroke-width:3px;}.cls-4,.cls-5{fill:none;}.cls-4{stroke:#97cc4c;stroke-miterlimit:10;stroke-width:4px;}</style></defs><title>anim4</title><g id="anim4"><rect class="cls-1" x="156.61" y="431.33" width="155.65" height="215.23"/><rect class="cls-2" x="163.7" y="439.17" width="60.62" height="5.05"/><rect class="cls-2" x="284.95" y="474.53" width="20.21" height="5.05"/><rect class="cls-2" x="284.95" y="496" width="20.21" height="2.53"/><rect class="cls-2" x="284.95" y="506.11" width="20.21" height="2.53"/><rect class="cls-2" x="284.95" y="516.21" width="20.21" height="2.53"/><rect class="cls-2" x="284.95" y="526.31" width="20.21" height="2.53"/><rect class="cls-2" x="284.95" y="546.52" width="20.21" height="2.53"/><rect class="cls-2" x="284.95" y="536.42" width="20.21" height="2.53"/><rect class="cls-2" x="163.7" y="474.53" width="30.31" height="5.05"/><rect class="cls-2" x="163.7" y="496" width="30.31" height="2.53"/><rect class="cls-2" x="163.7" y="576.83" width="60.62" height="2.53"/><rect class="cls-2" x="163.7" y="586.94" width="30.31" height="2.53"/><rect class="cls-2" x="163.7" y="506.11" width="30.31" height="2.53"/><rect class="cls-2" x="163.7" y="516.21" width="30.31" height="2.53"/><rect class="cls-2" x="163.7" y="526.31" width="30.31" height="2.53"/><rect class="cls-2" x="163.7" y="536.42" width="30.31" height="2.53"/><rect class="cls-2" x="163.7" y="546.52" width="30.31" height="2.53"/><rect class="cls-2" x="214.22" y="474.53" width="50.52" height="5.05"/><rect class="cls-2" x="214.22" y="496" width="30.31" height="2.53"/><rect class="cls-2" x="214.22" y="506.11" width="40.42" height="2.53"/><rect class="cls-2" x="214.22" y="516.21" width="50.52" height="2.53"/><rect class="cls-2" x="214.22" y="536.42" width="50.52" height="2.53"/><rect class="cls-2" x="214.22" y="546.52" width="40.42" height="2.53"/><rect class="cls-2" x="214.22" y="526.31" width="30.31" height="2.53"/><path class="cls-2" d="M276.84,593.93a1.29,1.29,0,0,0-1.53.34L258,615.15l-17.19-10.61a1.3,1.3,0,0,0-1-.16l-17.19,4-17.84-9.89a1.28,1.28,0,0,0-1.65.35l-16.81,22.4-17-9.64a1.29,1.29,0,0,0-1.29,0l-11.09,6.58v25.62h1V620.49l10.74-6.37L186,624a1.28,1.28,0,0,0,1.66-.34l16.82-22.41,17.29,9.59a1.25,1.25,0,0,0,.91.13l17.16-4,17.69,10.92a1.28,1.28,0,0,0,1.66-.27l17.44-21,16.58,7.71,17,11.83v-3.09l-15.7-10.92Z"/><path class="cls-2" d="M158.65,458.11h44.21V566.73H158.65v2.53H310.21v-2.53h-34.1V458.11h34.1v-2.53H158.65Zm46.73,0h68.2V566.73h-68.2Z"/><rect class="cls-1" x="1246.9" y="646.52" width="155.65" height="215.23"/><path class="cls-2" d="M1275,774.68a10.08,10.08,0,0,0,9.07-5.72l23.82,4.76c0,.32,0,.63,0,1a17.63,17.63,0,0,0,5.16,12.48l-15.55,20.73a7.48,7.48,0,0,0-2.24-.38,7.58,7.58,0,1,0,6.31,3.38L1317,790.2a17.63,17.63,0,0,0,17.43-.29l23.4,29.26a10.1,10.1,0,1,0,3.94-3.17l-23.39-29.24a17.49,17.49,0,0,0,4.28-16.22l25.23-10.09a10.07,10.07,0,1,0-2-6,9.92,9.92,0,0,0,.13,1.27l-25.25,10.1a17.72,17.72,0,0,0-9.93-8l5.63-33.76a10,10,0,1,0-5-.79L1325.89,757l-.38,0a17.62,17.62,0,0,0-5.56.91l-9.19-18.39a7.57,7.57,0,1,0-5.45,2.33,7.65,7.65,0,0,0,.92-.09l9.21,18.41a17.69,17.69,0,0,0-6.57,8.61L1285,764a10.08,10.08,0,1,0-10,10.67"/><rect class="cls-2" x="1264.88" y="661.01" width="60.62" height="5.05"/><rect class="cls-2" x="1264.88" y="672.38" width="40.42" height="2.53"/><rect class="cls-1" x="934.86" y="646.52" width="155.65" height="215.23"/><rect class="cls-2" x="952.7" y="670.78" width="60.62" height="5.05"/><rect class="cls-2" x="1053.74" y="670.78" width="20.21" height="5.05"/><rect class="cls-2" x="952.7" y="682.14" width="80.83" height="2.53"/><rect class="cls-2" x="952.7" y="702.35" width="60.62" height="2.53"/><rect class="cls-2" x="952.7" y="712.45" width="60.62" height="2.53"/><rect class="cls-2" x="952.7" y="813.5" width="121.25" height="2.53"/><rect class="cls-2" x="952.7" y="823.6" width="121.25" height="2.53"/><rect class="cls-2" x="952.7" y="833.7" width="60.62" height="2.53"/><rect class="cls-2" x="952.7" y="722.56" width="40.42" height="2.53"/><rect class="cls-2" x="952.7" y="752.87" width="40.42" height="2.53"/><rect class="cls-2" x="952.7" y="732.66" width="50.52" height="2.53"/><rect class="cls-2" x="952.7" y="742.77" width="50.52" height="2.53"/><path class="cls-2" d="M1023.43,764.24h48v-58.1h-48Zm2.4-55.68H1069v53.26h-43.19Z"/><path class="cls-2" d="M952.7,794.55h121.25V774.34H952.7ZM1071.42,792H955.23V776.87h116.2Z"/><rect class="cls-3" x="1246.12" y="431.28" width="155.65" height="215.23"/><path d="M1297.68,539.64a6.93,6.93,0,0,1-6.64,4.07c-6,0-7.73-5.25-7.73-9.91,0-6.13,2.81-10.54,8.44-10.54a6.92,6.92,0,0,1,5.67,2.6V515.65h-3.36V513h6.72v27.47h3v2.69h-5.84Zm-.25-6.68c0-2.65-.71-6.93-5.38-6.93-3.61,0-5.12,2.69-5.12,7.56,0,3,.59,7.35,4.83,7.35C1295.62,540.94,1297.43,537.2,1297.43,533Z"/><path d="M1307.42,529.31a5.36,5.36,0,0,1,0-.8c0-3.23,2.56-5.25,7.73-5.25,5,0,7,2.14,7,7v7.86c0,1.34-.13,2.6,1.68,2.6a4.32,4.32,0,0,0,.71,0l-.59,2.52c-.42,0-.8.08-1.13.08a3.34,3.34,0,0,1-3.7-3.4,6.87,6.87,0,0,1-6.22,3.82c-3.11,0-6.09-1.68-6.09-5.21,0-4.41,4.71-6.64,12-6.68v-1.09c0-3.32-.88-4.71-3.86-4.71-2.65,0-4.37.92-4.37,3.4,0,.17,0,.29,0,.46Zm11.3,5.08c-5.92,0-8.36,1.39-8.36,3.86,0,1.64,1.13,2.69,3.11,2.69,2.56,0,5.08-2,5.25-4.49Z"/><path d="M1329.94,526.53h-3.57v-2.69H1330l.21-5.71h3.07v5.71h5.46v2.69h-5.46v10.75c0,2.39.46,3.49,1.81,3.49,1.05,0,1.72-.71,2.14-2.23l2.56,1.13c-.88,2.14-2.23,3.86-5.12,3.86-3.82,0-4.75-3-4.75-6.09Z"/><path d="M1342.91,529.31a5.36,5.36,0,0,1,0-.8c0-3.23,2.56-5.25,7.73-5.25,5,0,7,2.14,7,7v7.86c0,1.34-.13,2.6,1.68,2.6a4.32,4.32,0,0,0,.71,0l-.59,2.52c-.42,0-.8.08-1.13.08a3.34,3.34,0,0,1-3.7-3.4,6.87,6.87,0,0,1-6.22,3.82c-3.11,0-6.09-1.68-6.09-5.21,0-4.41,4.71-6.64,12-6.68v-1.09c0-3.32-.88-4.71-3.86-4.71-2.65,0-4.37.92-4.37,3.4,0,.17,0,.29,0,.46Zm11.3,5.08c-5.92,0-8.36,1.39-8.36,3.86,0,1.64,1.13,2.69,3.11,2.69,2.56,0,5.08-2,5.25-4.49Z"/><line class="cls-4" x1="1265.55" y1="568.35" x2="1382.57" y2="568.35"/><rect class="cls-1" x="779.85" y="647" width="155.65" height="215.23"/><rect class="cls-2" x="786.94" y="654.84" width="60.62" height="5.05"/><rect class="cls-2" x="908.19" y="690.21" width="20.21" height="5.05"/><rect class="cls-2" x="908.19" y="711.68" width="20.21" height="2.53"/><rect class="cls-2" x="908.19" y="721.78" width="20.21" height="2.53"/><rect class="cls-2" x="908.19" y="731.88" width="20.21" height="2.53"/><rect class="cls-2" x="908.19" y="741.99" width="20.21" height="2.53"/><rect class="cls-2" x="908.19" y="762.2" width="20.21" height="2.53"/><rect class="cls-2" x="908.19" y="752.09" width="20.21" height="2.53"/><rect class="cls-2" x="786.94" y="690.21" width="30.31" height="5.05"/><rect class="cls-2" x="786.94" y="711.68" width="30.31" height="2.53"/><rect class="cls-2" x="786.94" y="792.51" width="60.62" height="2.53"/><rect class="cls-2" x="786.94" y="802.61" width="30.31" height="2.53"/><rect class="cls-2" x="786.94" y="721.78" width="30.31" height="2.53"/><rect class="cls-2" x="786.94" y="731.88" width="30.31" height="2.53"/><rect class="cls-2" x="786.94" y="741.99" width="30.31" height="2.53"/><rect class="cls-2" x="786.94" y="752.09" width="30.31" height="2.53"/><rect class="cls-2" x="786.94" y="762.2" width="30.31" height="2.53"/><rect class="cls-2" x="837.46" y="690.21" width="50.52" height="5.05"/><rect class="cls-2" x="837.46" y="711.68" width="30.31" height="2.53"/><rect class="cls-2" x="837.46" y="721.78" width="40.42" height="2.53"/><rect class="cls-2" x="837.46" y="731.88" width="50.52" height="2.53"/><rect class="cls-2" x="837.46" y="752.09" width="50.52" height="2.53"/><rect class="cls-2" x="837.46" y="762.2" width="40.42" height="2.53"/><rect class="cls-2" x="837.46" y="741.99" width="30.31" height="2.53"/><path class="cls-2" d="M900.08,809.6a1.29,1.29,0,0,0-1.53.34l-17.35,20.89L864,820.21a1.3,1.3,0,0,0-1-.16l-17.19,4L828,814.13a1.28,1.28,0,0,0-1.65.35l-16.81,22.4-17-9.64a1.29,1.29,0,0,0-1.29,0l-11.09,6.58v25.62h1V836.17l10.74-6.37,17.32,9.84a1.28,1.28,0,0,0,1.66-.34l16.82-22.41L845,826.47a1.25,1.25,0,0,0,.91.13l17.16-4,17.69,10.92a1.28,1.28,0,0,0,1.66-.27l17.44-21L916.47,820l17,11.83v-3.09l-15.7-10.92Z"/><path class="cls-2" d="M781.89,673.79H826.1V782.4H781.89v2.53H933.45V782.4h-34.1V673.79h34.1v-2.53H781.89Zm46.73,0h68.2V782.4h-68.2Z"/><rect class="cls-2" x="495.21" y="395.58" width="10.1" height="10.1"/><rect class="cls-1" x="467.91" y="216.32" width="155.65" height="215.23"/><rect class="cls-2" x="485.11" y="241.5" width="80.83" height="5.05"/><rect class="cls-2" x="485.11" y="262.97" width="60.62" height="2.53"/><rect class="cls-2" x="485.11" y="273.07" width="50.52" height="2.53"/><rect class="cls-2" x="485.11" y="283.17" width="40.42" height="2.53"/><rect class="cls-2" x="485.11" y="303.38" width="40.42" height="2.53"/><rect class="cls-2" x="485.11" y="293.28" width="50.52" height="2.53"/><rect class="cls-2" x="485.11" y="313.48" width="50.52" height="2.53"/><path class="cls-2" d="M607.62,415.79V355.16h-2.53v59.36h-120v2.53H606.36a1.26,1.26,0,0,0,1.26-1.26"/><rect class="cls-2" x="576.05" y="404.42" width="20.21" height="2.53"/><rect class="cls-2" x="586.15" y="394.32" width="10.1" height="2.53"/><rect class="cls-2" x="586.15" y="384.21" width="10.1" height="2.53"/><rect class="cls-2" x="576.05" y="374.11" width="20.21" height="2.53"/><path class="cls-2" d="M553.13,290.22a1.27,1.27,0,0,0,.37.9,1.25,1.25,0,0,0,.89.37H579.1v24.7a1.28,1.28,0,0,0,.37.9,1.25,1.25,0,0,0,.89.37h0a27.18,27.18,0,1,0-27.24-27.23m27.18-24.6a24.66,24.66,0,0,1,1.32,49.28V290.22a1.26,1.26,0,0,0-1.26-1.26H555.69a24.7,24.7,0,0,1,24.62-23.34"/><path class="cls-2" d="M545.73,298.93a25.92,25.92,0,0,0,25.92,25.92h.05v-26h-26s0,0,0,.05"/><rect class="cls-2" x="510.37" y="385.48" width="10.1" height="20.21"/><rect class="cls-2" x="555.84" y="375.37" width="10.1" height="30.31"/><rect class="cls-2" x="540.68" y="395.58" width="10.1" height="10.1"/><rect class="cls-2" x="525.52" y="365.27" width="10.1" height="40.42"/><rect class="cls-1" x="467.91" y="647.21" width="155.65" height="215.23"/><path class="cls-2" d="M485.11,726.23H606.35a1.26,1.26,0,0,0,1.26-1.26V694.65a1.26,1.26,0,0,0-1.26-1.26H485.11a1.26,1.26,0,0,0-1.26,1.26V725a1.26,1.26,0,0,0,1.26,1.26m1.26-30.31H605.09V723.7H486.37Z"/><rect class="cls-2" x="515.42" y="703.49" width="50.52" height="2.53"/><rect class="cls-2" x="515.42" y="713.59" width="70.73" height="2.53"/><rect class="cls-2" x="485.11" y="682.02" width="40.42" height="5.05"/><path class="cls-2" d="M485.11,786.85H606.35a1.26,1.26,0,0,0,1.26-1.26V745.17a1.26,1.26,0,0,0-1.26-1.26H485.11a1.26,1.26,0,0,0-1.26,1.26v40.42a1.26,1.26,0,0,0,1.26,1.26m1.26-40.41H605.09v37.89H486.37Z"/><rect class="cls-2" x="515.42" y="754.01" width="80.83" height="2.53"/><rect class="cls-2" x="515.42" y="764.12" width="70.73" height="2.53"/><rect class="cls-2" x="515.42" y="774.22" width="70.73" height="2.53"/><rect class="cls-2" x="485.11" y="732.54" width="40.42" height="5.05"/><rect class="cls-2" x="485.11" y="663.08" width="50.52" height="2.53"/><rect class="cls-2" x="565.94" y="663.08" width="40.42" height="2.53"/><rect class="cls-2" x="485.11" y="804.53" width="121.25" height="2.53"/><rect class="cls-2" x="485.11" y="814.64" width="121.25" height="2.53"/><rect class="cls-2" x="485.11" y="824.74" width="101.04" height="2.53"/><rect class="cls-2" x="485.11" y="834.84" width="121.25" height="2.53"/><rect class="cls-2" x="485.11" y="844.95" width="121.25" height="2.53"/><rect class="cls-2" x="495.21" y="703.49" width="10.1" height="2.53"/><rect class="cls-2" x="495.21" y="754.01" width="10.1" height="2.53"/><rect class="cls-2" x="495.21" y="764.12" width="10.1" height="2.53"/><rect class="cls-2" x="495.21" y="774.22" width="10.1" height="2.53"/><rect class="cls-2" x="495.21" y="713.59" width="10.1" height="2.53"/><rect class="cls-5" width="1869.73" height="1292.69"/><rect class="cls-3" x="623.56" y="430.75" width="155.65" height="215.23"/><path d="M673.27,526h-3.57v-2.69h3.65l.21-5.71h3.07v5.71h5.46V526h-5.46v10.75c0,2.39.46,3.49,1.81,3.49,1.05,0,1.72-.71,2.14-2.23l2.56,1.13c-.88,2.14-2.23,3.86-5.12,3.86-3.82,0-4.75-3-4.75-6.09Z"/><path d="M685,539.9h3V515.12h-3.36v-2.69h6.72v14.83a7.16,7.16,0,0,1,6.81-4.54c3.28,0,5.84,1.81,5.84,5.92V539.9H707v2.69H698V539.9h2.65V529.61c0-2.9-1-4-3-4-4.33,0-5.88,5-6.26,6.68v7.6H694v2.69h-9Z"/><path d="M726.57,537.68c-1,3.44-3.49,5.5-7.73,5.5-5.71,0-9-3.19-9-10.12,0-5.17,2.18-10.33,8.91-10.33,5.08,0,7.81,2.77,7.81,8.65v2.1H713.46c0,3.57,1,6.93,5.46,6.93a4.75,4.75,0,0,0,4.71-3.32Zm-3.49-6.89V530c0-2.56-1.39-4.54-4.41-4.54-2.69,0-4.58,1.64-5.08,5.29Z"/><line class="cls-4" x1="642.99" y1="567.82" x2="760" y2="567.82"/><rect class="cls-1" x="1401.74" y="1077.69" width="155.65" height="215.23"/><polygon class="cls-2" points="1419.03 1194.42 1449.3 1194.33 1449.17 1196.85 1418.9 1196.94 1419.03 1194.42"/><rect class="cls-2" x="1418.95" y="1245.73" width="30.31" height="2.53"/><rect class="cls-2" x="1418.95" y="1265.94" width="30.31" height="2.53"/><rect class="cls-2" x="1418.95" y="1092.91" width="90.94" height="5.05"/><rect class="cls-2" x="1418.95" y="1114.38" width="50.52" height="2.53"/><rect class="cls-2" x="1418.95" y="1124.48" width="50.52" height="2.53"/><rect class="cls-2" x="1418.95" y="1134.59" width="50.52" height="2.53"/><rect class="cls-2" x="1418.95" y="1144.69" width="50.52" height="2.53"/><rect class="cls-2" x="1418.95" y="1154.79" width="50.52" height="2.53"/><rect class="cls-2" x="1418.95" y="1164.9" width="50.52" height="2.53"/><rect class="cls-2" x="1418.95" y="1175" width="50.52" height="2.52"/><rect class="cls-2" x="1418.95" y="1185.11" width="50.52" height="2.52"/><rect class="cls-2" x="1418.95" y="1215.42" width="50.52" height="2.53"/><rect class="cls-2" x="1418.95" y="1225.52" width="50.52" height="2.53"/><rect class="cls-2" x="1418.95" y="1235.63" width="50.52" height="2.53"/><rect class="cls-2" x="1418.95" y="1255.83" width="50.52" height="2.53"/><rect class="cls-2" x="1489.67" y="1114.38" width="50.52" height="2.53"/><rect class="cls-2" x="1489.67" y="1124.48" width="50.52" height="2.53"/><rect class="cls-2" x="1489.67" y="1134.59" width="50.52" height="2.53"/><rect class="cls-2" x="1489.67" y="1144.69" width="50.52" height="2.53"/><rect class="cls-2" x="1489.67" y="1195.21" width="50.52" height="2.52"/><rect class="cls-2" x="1489.67" y="1173.74" width="50.52" height="5.05"/><rect class="cls-2" x="1489.67" y="1205.31" width="50.52" height="2.53"/><rect class="cls-2" x="1489.67" y="1215.42" width="50.52" height="2.53"/><rect class="cls-2" x="1489.67" y="1225.52" width="50.52" height="2.53"/><rect class="cls-2" x="1489.67" y="1235.63" width="20.21" height="2.53"/><rect class="cls-2" x="1489.67" y="1255.83" width="50.52" height="2.53"/><rect class="cls-2" x="1489.67" y="1265.94" width="50.52" height="2.53"/><rect class="cls-2" x="1489.67" y="1276.04" width="20.21" height="2.53"/><rect class="cls-2" x="1117.81" y="1256.96" width="10.1" height="10.1"/><rect class="cls-1" x="1090.51" y="1077.69" width="155.65" height="215.23"/><rect class="cls-2" x="1107.71" y="1102.87" width="80.83" height="5.05"/><rect class="cls-2" x="1107.71" y="1124.34" width="60.62" height="2.53"/><rect class="cls-2" x="1107.71" y="1134.45" width="50.52" height="2.53"/><rect class="cls-2" x="1107.71" y="1144.55" width="40.42" height="2.53"/><rect class="cls-2" x="1107.71" y="1164.76" width="40.42" height="2.53"/><rect class="cls-2" x="1107.71" y="1154.66" width="50.52" height="2.53"/><rect class="cls-2" x="1107.71" y="1174.86" width="50.52" height="2.53"/><path class="cls-2" d="M1230.22,1277.17v-60.62h-2.53v59.36h-120v2.53H1229a1.26,1.26,0,0,0,1.26-1.26"/><rect class="cls-2" x="1198.64" y="1265.8" width="20.21" height="2.53"/><rect class="cls-2" x="1208.75" y="1255.69" width="10.1" height="2.53"/><rect class="cls-2" x="1208.75" y="1245.59" width="10.1" height="2.53"/><rect class="cls-2" x="1198.64" y="1235.49" width="20.21" height="2.53"/><path class="cls-2" d="M1175.73,1151.6a1.27,1.27,0,0,0,.37.9,1.25,1.25,0,0,0,.89.37h24.71v24.7a1.28,1.28,0,0,0,.37.9,1.25,1.25,0,0,0,.89.37h0a27.18,27.18,0,1,0-27.24-27.23m27.18-24.6a24.66,24.66,0,0,1,1.32,49.28V1151.6a1.26,1.26,0,0,0-1.26-1.26h-24.67a24.7,24.7,0,0,1,24.62-23.34"/><path class="cls-2" d="M1168.33,1160.31a25.92,25.92,0,0,0,25.92,25.92h.05v-26h-26s0,0,0,.05"/><rect class="cls-2" x="1132.97" y="1246.85" width="10.1" height="20.21"/><rect class="cls-2" x="1178.43" y="1236.75" width="10.1" height="30.31"/><rect class="cls-2" x="1163.28" y="1256.96" width="10.1" height="10.1"/><rect class="cls-2" x="1148.12" y="1226.65" width="10.1" height="40.42"/><rect class="cls-1" x="467.91" y="1077.69" width="155.65" height="215.23"/><polygon class="cls-2" points="485.2 1194.42 515.46 1194.33 515.33 1196.85 485.06 1196.94 485.2 1194.42"/><rect class="cls-2" x="485.11" y="1245.73" width="30.31" height="2.53"/><rect class="cls-2" x="485.11" y="1265.94" width="30.31" height="2.53"/><rect class="cls-2" x="485.11" y="1092.91" width="90.94" height="5.05"/><rect class="cls-2" x="485.11" y="1114.38" width="50.52" height="2.53"/><rect class="cls-2" x="485.11" y="1124.48" width="50.52" height="2.53"/><rect class="cls-2" x="485.11" y="1134.59" width="50.52" height="2.53"/><rect class="cls-2" x="485.11" y="1144.69" width="50.52" height="2.53"/><rect class="cls-2" x="485.11" y="1154.79" width="50.52" height="2.53"/><rect class="cls-2" x="485.11" y="1164.9" width="50.52" height="2.53"/><rect class="cls-2" x="485.11" y="1175" width="50.52" height="2.52"/><rect class="cls-2" x="485.11" y="1185.11" width="50.52" height="2.52"/><rect class="cls-2" x="485.11" y="1215.42" width="50.52" height="2.53"/><rect class="cls-2" x="485.11" y="1225.52" width="50.52" height="2.53"/><rect class="cls-2" x="485.11" y="1235.63" width="50.52" height="2.53"/><rect class="cls-2" x="485.11" y="1255.83" width="50.52" height="2.53"/><rect class="cls-2" x="555.84" y="1114.38" width="50.52" height="2.53"/><rect class="cls-2" x="555.84" y="1124.48" width="50.52" height="2.53"/><rect class="cls-2" x="555.84" y="1134.59" width="50.52" height="2.53"/><rect class="cls-2" x="555.84" y="1144.69" width="50.52" height="2.53"/><rect class="cls-2" x="555.84" y="1195.21" width="50.52" height="2.52"/><rect class="cls-2" x="555.84" y="1173.74" width="50.52" height="5.05"/><rect class="cls-2" x="555.84" y="1205.31" width="50.52" height="2.53"/><rect class="cls-2" x="555.84" y="1215.42" width="50.52" height="2.53"/><rect class="cls-2" x="555.84" y="1225.52" width="50.52" height="2.53"/><rect class="cls-2" x="555.84" y="1235.63" width="20.21" height="2.53"/><rect class="cls-2" x="555.84" y="1255.83" width="50.52" height="2.53"/><rect class="cls-2" x="555.84" y="1265.94" width="50.52" height="2.53"/><rect class="cls-2" x="555.84" y="1276.04" width="20.21" height="2.53"/></g></svg>