<?xml version="1.0" encoding="utf-8"?>
<!-- Generator: Adobe Illustrator 20.1.0, SVG Export Plug-In . SVG Version: 6.00 Build 0)  -->
<svg version="1.1" id="Layer_1" xmlns="http://www.w3.org/2000/svg" xmlns:xlink="http://www.w3.org/1999/xlink" x="0px" y="0px"
	 viewBox="0 0 1564 1305" style="enable-background:new 0 0 1564 1305;" xml:space="preserve">
<style type="text/css">
	.st0{fill:#A3E54E;}
</style>
<path class="st0" d="M1131.9,531.5c19.4-3.5,39.4-5.2,59.8-5.2c197.8,0,358.3,154.1,358.3,343.8S1389.4,1214,1191.7,1214
	c-197.8,0-358.3-154.1-358.3-343.8v0l0,0c-11-620.8,528.8-842.3,528.8-842.3l67.7,115.1C1429.9,143,1172.8,266.8,1131.9,531.5
	L1131.9,531.5z"/>
<path class="st0" d="M317.5,531.5c19.4-3.5,39.4-5.2,59.8-5.2c197.8,0,358.3,154.1,358.3,343.8S575.1,1214,377.4,1214
	S19.1,1059.9,19.1,870.2v0l0,0C8,249.4,547.9,27.9,547.9,27.9L615.6,143C615.6,143,358.5,266.8,317.5,531.5L317.5,531.5z"/>
</svg>
